<?xml version="1.0" encoding="UTF-8"?>
<svg xmlns="http://www.w3.org/2000/svg" viewBox="0 0 201.97 201.97">
  <defs>
    <style>
      .cls-1 {
        fill: #eeb997;
      }

      .cls-2 {
        fill: #f3bcca;
      }

      .cls-3 {
        fill: #8485a4;
      }

      .cls-4 {
        fill: #daaa82;
      }

      .cls-5 {
        fill: #232022;
      }

      .cls-6 {
        fill: #066873;
      }

      .cls-7 {
        fill: #626584;
      }

      .cls-8 {
        isolation: isolate;
      }

      .cls-9 {
        fill: #1f1e21;
        mix-blend-mode: overlay;
        opacity: .5;
      }
    </style>
  </defs>
  <g class="cls-8">
    <g id="Capa_1" data-name="Capa 1">
      <g>
        <path class="cls-3" d="M201.97,100.99c0,49.16-35.13,90.12-81.66,99.14-6.26,1.21-12.72,1.85-19.33,1.85-4.05,0-8.04-.24-11.96-.7-2.64-.31-5.25-.72-7.82-1.24C35.47,190.95,.86,150.99,.02,102.79c-.01-.6-.02-1.2-.02-1.81,0-2.53,.09-5.03,.28-7.51C4.12,41.21,47.74,0,100.99,0s97.2,41.52,100.75,94.06c.16,2.29,.23,4.6,.23,6.92Z"/>
        <path class="cls-7" d="M101,16.76V180.24l-19.79,19.79C35.47,190.95,.86,150.99,.02,102.79c-.01-.6-.02-1.2-.02-1.81,0-2.53,.09-5.03,.28-7.51L61.91,31.85c.24-.21,.5-.41,.76-.59,2.32-1.53,5.31-1.71,8.04-1.21-.3-.06,.56-3.39,.66-3.7,.41-1.19,.99-2.32,1.73-3.35,3.19-4.46,9.42-6.39,14.58-4.53,.04,.01,.18,.09,.36,.2,.45,.26,1.12,.69,1.09,.76,.87-1.75,2.43-3.13,4.27-3.78,2.42-.85,5.43-.32,7.59,1.11Z"/>
        <g>
          <g>
            <path class="cls-6" d="M161.25,182.03c-11.9,8.86-25.81,15.17-40.93,18.1-6.26,1.21-12.72,1.85-19.33,1.85h0c-4.04,0-8.04-.24-11.96-.7-17.97-2.12-34.49-8.96-48.3-19.24,5.8-21.06,23.01-37.59,44.8-42.99,.7-.17,1.39-.33,2.1-.48,4.3-.91,8.77-1.39,13.35-1.39h0c4.58,0,9.06,.48,13.36,1.39,.28,.06,.56,.12,.84,.18,.42,.1,.85,.2,1.27,.3,21.8,5.4,39,21.93,44.8,42.99Z"/>
            <path class="cls-4" d="M67.82,99.2c-.24,.64-.52,1.27-.93,1.83-.66,.89-1.6,1.52-2.55,2.1-1.24,.76-2.59,1.48-4.04,1.48h-.11c-.09,0-.19-.01-.28-.02-.06,0-.12-.01-.18-.02-.04,0-.09-.01-.14-.02-.02,0-.04,0-.06-.01-.11-.02-.22-.04-.32-.07,0,0-.01,0-.02,0-.07-.02-.14-.03-.21-.06-.27-.08-.54-.18-.8-.29-.11-.05-.22-.1-.33-.16-.11-.06-.21-.11-.31-.17-.64-.37-1.22-.82-1.75-1.33-.21-.21-.41-.42-.61-.64-.2-.22-.39-.45-.57-.68-.37-.47-.71-.96-1.04-1.46-.25-.37-.48-.75-.71-1.13-.42-.7-.84-1.42-1.23-2.13-.2-.36-.39-.73-.58-1.09-.37-.73-.73-1.47-1.05-2.23-.32-.75-.61-1.52-.87-2.29-.07-.2-.13-.39-.19-.59-.06-.2-.11-.39-.17-.59-.18-.66-.33-1.32-.46-1.99-.4-2.21-.44-4.48,.01-6.66,.08-.36,.17-.71,.27-1.07,.03-.1,.06-.2,.09-.3,.16-.5,.35-.99,.59-1.46,.1-.18,.2-.37,.31-.54,.4-.61,.9-1.13,1.47-1.56,.29-.22,.59-.41,.91-.58,.58-.31,1.21-.54,1.86-.69,1.15-.28,2.38-.3,3.53-.08,.4,.08,.8,.18,1.18,.31,.49,.16,.96,.36,1.42,.59,.1,.05,.21,.1,.31,.16,1.66,.89,3.12,2.21,4.32,3.67,1.45,1.77,2.56,3.79,3.32,5.95,.09,.26,.18,.52,.26,.79,.25,.83,.45,1.68,.6,2.54,0,0,0,.02,0,.02,.6,3.49,.31,7.14-.95,10.46Z"/>
            <path class="cls-4" d="M149.5,98.55c-1.22,2.02-2.62,4.06-4.67,5.24-.84,.49-1.79,.81-2.77,.81-1.45,0-2.8-.72-4.04-1.48-.95-.58-1.89-1.21-2.55-2.1-.41-.55-.69-1.19-.93-1.83-2.48-6.54-1.2-14.36,3.23-19.77,1.86-2.27,4.34-4.17,7.22-4.73,2.88-.56,6.17,.45,7.77,2.92,.45,.7,.76,1.49,.99,2.3,.91,3.15,.7,6.56-.17,9.72s-2.39,6.11-4.09,8.92Z"/>
            <path class="cls-5" d="M149.81,61.24c.77,2,1.52,4.13,1.18,6.25-.33,2.12-2.12,4.17-4.26,4.02,.45,.99,.76,2.04,.96,3.11,.03,.16,.06,.32,.08,.48,.19,1.33,.19,2.69-.02,4.02-.32,2.06-1.32,4.25-3.27,5,.42-.17,.56,2.73,.52,2.98-.16,1.1-.67,2.06-1.39,2.89-.88,1.01-1.42,2.04-1.81,3.18-.03,.09-.06,.18-.09,.27-.22,.66-.39,1.35-.58,2.11-.15-1.11-.29-2.22-.44-3.33-.07-.52-.14-1.05-.26-1.56-.27-1.14-.46-1.61-.98-1.79-.28-.1-.64-.12-1.16-.12H69.64c-.29,0-.58-.01-.88-.02-.62-.02-1.25-.05-1.83,.02-.7,.09-1.41,.4-2.08,.6-.41,.12-.83,.25-1.2,.46-.1,.06-.19,.11-.28,.18-.47,.35-.79,.87-1.06,1.39-1.04,1.98-1.63,4.19-1.71,6.43-.09-.73-.2-1.46-.33-2.19-.02-.12-.04-.23-.06-.35,0,0,0-.01,0-.02-.39-2.08-1.59-4.36-1.7-6.42-.12-2.13,.21-3.76-1.49-5.49-.65-.66-1.44-1.15-2.14-1.76-1.75-1.52-2.76-3.79-2.9-6.1-.12-1.85,.31-3.73,1.33-5.28-2.53-1.81-4.14-4.84-4.24-7.94-.1-3.11,1.32-6.23,3.72-8.21-1.7-2.9-1.88-6.63-.47-9.68,1.41-3.05,4.38-5.32,7.69-5.89-.83-2.04-.12-4.42,1.37-6.08,.17-.19,.35-.37,.54-.54,.24-.21,.5-.41,.76-.59,2.32-1.53,5.31-1.71,8.04-1.21-.3-.06,.56-3.39,.66-3.7,.41-1.19,.99-2.32,1.73-3.35,3.19-4.46,9.42-6.39,14.58-4.53,.04,.01,.18,.09,.36,.2,.45,.26,1.12,.69,1.09,.76,.87-1.75,2.43-3.13,4.27-3.78,2.42-.85,5.43-.32,7.59,1.11,.17,.11,.34,.23,.5,.36,.37,.29,1.73,1.22,1.51,1.82,.57-1.53,1.83-2.74,3.32-3.39,1.62-.7,3.45-.78,5.19-.49,3.12,.52,6.32,2.68,6.65,5.83,2.41-1.72,5.83-1.9,8.41-.43,2.58,1.47,4.17,4.5,3.92,7.45,2.26-.55,4.8,.4,6.16,2.28,1.35,1.89,1.44,4.6,.2,6.56,2.27-.98,5.11,.12,6.49,2.16,1.39,2.05,1.46,4.81,.59,7.12,3.69-1.03,6.72,1.82,8.25,4.88,1.69,3.37,.39,7.95-2.38,10.33Z"/>
            <g>
              <path class="cls-4" d="M116.45,126.02v25.95c0,8.54-6.92,15.46-15.46,15.46h0c-8.54,0-15.46-6.92-15.46-15.46v-25.95h30.92Z"/>
              <path class="cls-9" d="M116.45,121.88v15.47c-.4,.48-.83,.94-1.27,1.39-3.26,3.32-7.49,5.89-12.22,7.35-.66,.2-1.32,.38-1.98,.54-2.27,.54-4.57,.8-6.84,.8-2.98,0-5.9-.46-8.62-1.37v-24.18h30.92Z"/>
            </g>
            <path class="cls-2" d="M141.7,47.13v57.52c0,6.33-2.78,12.43-7.81,17.13-4.33,4.04-9.7,9.03-14.08,13.01-1.04,.94-2.16,1.8-3.36,2.56-.68,.43-1.38,.84-2.11,1.21-3.99,2.05-8.6,3.17-13.36,3.17-3.57,0-7.06-.63-10.27-1.81-1.06-.39-2.1-.84-3.09-1.36-.72-.37-1.42-.77-2.1-1.2-1.2-.76-2.33-1.62-3.37-2.57-4.37-3.98-9.75-8.97-14.07-13.01-5.03-4.7-7.81-10.8-7.81-17.13V47.13h81.43Z"/>
            <path class="cls-1" d="M141.7,47.13v57.52c0,6.33-2.78,12.43-7.81,17.13-4.33,4.04-9.7,9.03-14.08,13.01-1.04,.94-2.16,1.8-3.36,2.56-.68,.43-1.38,.84-2.11,1.2-3.99,2.05-8.6,3.17-13.36,3.17-3.57,0-7.06-.63-10.27-1.81-1.06-.39-2.1-.84-3.09-1.36-.72-.37-1.42-.77-2.1-1.2-1.2-.76-2.33-1.62-3.37-2.57-4.37-3.98-9.75-8.97-14.07-13.01-5-4.66-7.78-10.71-7.81-16.99V47.13h81.43Z"/>
            <path class="cls-5" d="M142.37,46.26l-.67,54.27c-.62,.36-1.35,.57-2.12,.57,.06,0-.16-11.39-.14-12.54,.02-1.09-.04-2.19-.41-3.21-.33-.9-.94-1.66-1.68-2.25-.62-.49-1.27-.49-2.02-.67-1.8-.43-3.24-1.94-3.75-3.7-.57-1.99-.03-4.2,1.16-5.89-.84,.21-1.73-.14-2.47-.59-1.2-.73-2.25-1.76-2.78-3.06-.53-1.3-.5-2.86,.29-4.03-.63,.78-1.63,1.21-2.62,1.33s-2.01-.04-2.99-.28c-1.02-.25-2.03-.58-2.89-1.17-.86-.59-1.57-1.46-1.78-2.49-.53,1.73-1.76,3.24-3.35,4.12-.99,.54-2.1,.84-3.23,.87-.88,.02-1.88,.04-2.75-.05-1.92-.18-3.84-1.43-5.01-2.93,.34,.44-.33,1.48-.52,1.86-.35,.69-.89,1.15-1.51,1.63-1.35,1.02-2.93,1.74-4.59,2.05-2.74,.52-5.9-.06-8.23-1.62-.67-.45-1.26-1-1.76-1.63-.41-.51-.59-1.25-1-1.69,.28,.3-1.48,1.98-1.68,2.14-.77,.6-1.68,1.03-2.63,1.24-1.55,.34-3.86,.17-5.06-1,1.08,2.14,.75,4.91-.8,6.74-.61,.72-1.31,1.49-2.05,2.06-.28,.21-2.28,1.42-2.59,.88,1.06,1.83,1.11,4.19,.14,6.07-.61,1.18-1.57,2.11-2.65,2.87-1,.71-2.46,1.09-3.36,1.88-1.77,1.55-2.05,5.16-2.05,7.34,0,1.86-.24,3.9,0,5.74-.95,0-1.82-.31-2.53-.84l-.67-54h82.77Z"/>
            <polygon class="cls-9" points="60.25 104.61 60.26 104.61 60.26 104.79 60.25 104.61"/>
          </g>
          <path class="cls-9" d="M138.45,116.16c-.11,.19-.23,.38-.35,.57-.12,.19-.24,.37-.37,.56-.08,.12-.17,.25-.25,.37-.17,.25-.35,.49-.53,.73-.07,.1-.14,.19-.22,.29-.2,.26-.41,.52-.62,.77-.1,.12-.2,.23-.3,.35-.1,.11-.2,.23-.3,.34-.1,.11-.2,.23-.31,.34-.13,.14-.27,.28-.4,.42-.1,.1-.2,.2-.3,.3-.01,.01-.02,.02-.03,.03-.08,.08-.16,.16-.24,.23-.11,.11-.22,.22-.34,.32-3.52,3.28-7.73,7.2-11.53,10.68-.58,.54-1.16,1.06-1.72,1.57-.28,.25-.56,.51-.84,.76-.91,.83-1.89,1.58-2.92,2.27-.14,.1-.29,.19-.45,.29-.68,.43-1.38,.84-2.11,1.2-3.99,2.05-8.6,3.17-13.36,3.17v25.71c-1.73,0-3.4-.29-4.96-.81-.24-.08-.47-.17-.71-.26-.35-.14-.7-.29-1.04-.45-.22-.11-.45-.22-.66-.34-.33-.18-.65-.37-.97-.57-.21-.13-.41-.27-.61-.42-.71-.5-1.37-1.06-1.98-1.67-2.8-2.79-4.53-6.66-4.53-10.93v4.14c0,8.54,6.92,15.46,15.46,15.47,9.77,0,17.68-7.92,17.68-17.68v4.74c0,9.77-7.91,17.68-17.68,17.68v25.65c-4.04,0-8.04-.24-11.96-.7-11.23-1.33-21.9-4.49-31.69-9.19-.98-.47-1.95-.95-2.91-1.45-.96-.5-1.91-1.02-2.86-1.55-.94-.53-1.87-1.07-2.8-1.63-1.38-.84-2.75-1.71-4.09-2.61-1.34-.9-2.66-1.83-3.96-2.8,2.81-10.2,8.3-19.34,15.68-26.66,.95-.95,1.94-1.86,2.95-2.74,.51-.44,1.02-.87,1.54-1.3,2.61-2.13,5.4-4.05,8.36-5.74,.59-.34,1.18-.67,1.79-.99,.6-.32,1.2-.64,1.82-.94,.31-.15,.62-.3,.93-.45,.93-.44,1.87-.85,2.83-1.25,1.27-.52,2.57-1.01,3.88-1.45,1.64-.55,3.32-1.04,5.02-1.46v-1.68c-1.2-.76-2.33-1.62-3.37-2.57-4.37-3.98-9.75-8.97-14.07-13.01-.16-.15-.31-.3-.46-.45-.11-.11-.23-.22-.34-.34-.03-.03-.07-.07-.1-.11-.1-.1-.19-.19-.28-.29-.05-.05-.1-.11-.16-.16-.03-.03-.06-.06-.09-.09-.01-.01-.02-.02-.03-.03-.07-.08-.14-.16-.21-.23-.03-.04-.07-.08-.1-.12-.14-.15-.27-.3-.4-.46-.02-.02-.03-.03-.04-.05-.08-.1-.16-.19-.24-.29-.06-.07-.12-.15-.18-.22-.11-.13-.21-.27-.32-.4,0,0-.01-.02-.02-.02-.09-.12-.18-.24-.27-.36-.06-.08-.11-.15-.17-.23-.09-.12-.18-.25-.27-.38,0-.01-.01-.02-.02-.03-.09-.13-.17-.25-.26-.38-.03-.04-.06-.08-.08-.13-.06-.09-.11-.17-.17-.26-.03-.05-.06-.09-.09-.14-.02-.04-.05-.08-.07-.12-.09-.14-.17-.28-.26-.42-.01-.02-.02-.04-.03-.06-.01-.01-.02-.03-.03-.04-.09-.16-.18-.32-.27-.48-.11-.19-.21-.39-.31-.58-.11-.22-.22-.44-.32-.65-.03-.06-.06-.12-.09-.19-.04-.08-.08-.16-.11-.24-.01-.03-.02-.06-.04-.09,0-.01-.01-.02-.01-.03-.02-.04-.04-.08-.06-.12-.01-.02-.02-.05-.03-.08,0-.01-.01-.02-.02-.04,0-.02-.01-.03-.02-.05-.03-.06-.05-.11-.07-.17-.02-.04-.03-.08-.05-.12-.02-.04-.04-.09-.06-.13-.01-.03-.02-.06-.03-.08-.03-.07-.05-.13-.08-.19-.07-.16-.13-.32-.19-.48-.02-.05-.04-.11-.06-.16-.01-.04-.03-.08-.04-.11-.04-.12-.09-.24-.12-.36-.03-.09-.07-.19-.09-.28-.03-.09-.06-.19-.09-.28-.06-.19-.11-.39-.17-.58,0-.03-.01-.06-.02-.08-.04-.16-.09-.32-.12-.48-.05-.19-.09-.38-.14-.58-.04-.19-.08-.38-.12-.58-.04-.19-.07-.39-.1-.58s-.06-.39-.09-.58c-.02-.16-.04-.31-.06-.47,0-.01,0-.02,0-.03,0-.03,0-.06-.01-.09,0-.08-.02-.16-.02-.24,0-.02,0-.04,0-.07-.01-.16-.03-.32-.04-.48,0-.11-.02-.23-.02-.35,0-.01,0-.03,0-.04,0-.02,0-.05,0-.07,0-.05,0-.1,0-.15,0-.08,0-.16-.01-.24v-.04s0-.04,0-.06c0-.16,0-.32,0-.48v-.18h-.08c-.1,0-.19,0-.28-.02-.06,0-.12-.01-.18-.02-.04,0-.09-.01-.14-.02-.02,0-.04,0-.06-.01-.11-.02-.22-.04-.32-.07,0,0-.01,0-.02,0-.07-.02-.14-.03-.21-.06-.27-.08-.54-.18-.8-.29-.11-.05-.22-.1-.33-.16-.11-.06-.21-.11-.31-.17-.64-.37-1.22-.82-1.75-1.33-.21-.21-.41-.42-.61-.64-.2-.22-.39-.45-.57-.68-.37-.47-.71-.96-1.04-1.46-.25-.37-.48-.75-.71-1.13-.42-.7-.84-1.42-1.23-2.13-.2-.36-.39-.73-.58-1.09-.38-.73-.73-1.47-1.05-2.23-.32-.75-.62-1.52-.87-2.29-.07-.2-.13-.39-.19-.59-.06-.2-.12-.39-.17-.59-.18-.66-.33-1.32-.45-1.99-.4-2.21-.44-4.48,.01-6.66,.08-.36,.16-.71,.26-1.07,.03-.1,.06-.2,.09-.3,.16-.5,.35-.99,.59-1.46,.1-.18,.2-.37,.31-.54,.4-.62,1.07-1,1.47-1.56,.29-.22,.59-.41,.91-.58-.12-1.85,.31-3.73,1.33-5.28-2.53-1.81-4.14-4.84-4.24-7.94-.1-3.11,1.32-6.23,3.72-8.21-1.7-2.9-1.88-6.63-.47-9.68,1.41-3.05,4.38-5.32,7.69-5.89-1.04-2.58,.35-5.69,2.67-7.21,2.32-1.53,5.31-1.71,8.04-1.21-.3-.06,.56-3.39,.66-3.7,.41-1.19,.99-2.32,1.73-3.35,3.19-4.46,9.42-6.39,14.58-4.53,.04,.01,.18,.09,.36,.2-.99-.57-4.67,2.39-5.38,2.95-2.31,1.82-4.19,4.14-5.5,6.77-2.3,4.58-2.67,9.88-1.89,14.89,1.29,8.3,6.3,15.77,13.94,19.47,4.04,1.95,8.82,2.96,13.25,1.98,.16-.03,.43-.17,.59-.15,.27,.03,.13,.02,.31,.18,.25,.22,.43,.55,.69,.78,.52,.46,.99,.81,1.6,1.14,2.23,1.2,5.71,1.04,7.72,.35,.37-.13,.78-.34,1.1-.56,.37-.25,.66-.47,1-.76,.99-.84,1.69-2.01,2.02-3.26,.16,1.03,.84,1.94,1.69,2.54,.78,.55,1.69,.95,2.63,1.14,1.94,.4,4.32,.68,5.87-.87-.06,.12-.12,.23-.18,.35-.8,1.51-2.25,2.62-3.9,3.06-2.02,.53-4.25-.02-5.85-1.36-.2-.17-.4-.36-.58-.55-.72,1.46-2.28,2.3-3.78,2.95-1.74,.75-3.55,1.33-5.45,1.41-10.02,.42-7.79,12.53-7.79,19.35,0,3.85,.1,7.7,0,11.55-.17,6.6,.63,13.23,.77,19.89,.03,1.32,.04,2.63,.04,3.93,0,.07,0,.14,0,.21,.14,7.7,8.15,12.93,15.17,9.67,.1-.04,.2-.09,.29-.14,0,0,.01,0,.02-.01,.72-.37,1.42-.77,2.1-1.2,1.2-.76,2.33-1.62,3.36-2.56,4.38-3.98,9.75-8.97,14.08-13.01,.88-.83,1.7-1.7,2.44-2.6Z"/>
          <path class="cls-9" d="M141.7,100.53v.4c-.12,.02-.24,.04-.36,.06-.01-.09-.02-.17-.03-.26,.13-.06,.26-.12,.39-.2Z"/>
        </g>
      </g>
    </g>
  </g>
</svg>