<?xml version="1.0" encoding="UTF-8"?>
<svg xmlns="http://www.w3.org/2000/svg" viewBox="0 0 201.97 201.97">
  <defs>
    <style>
      .cls-1 {
        fill: #e99f32;
      }

      .cls-2 {
        fill: #eeb997;
      }

      .cls-3 {
        fill: #f3bcca;
      }

      .cls-4 {
        fill: #64bca4;
      }

      .cls-5 {
        fill: #daaa82;
      }

      .cls-6 {
        fill: #592404;
      }

      .cls-7 {
        fill: #479c85;
      }

      .cls-8 {
        isolation: isolate;
      }

      .cls-9 {
        fill: #1f1e21;
        mix-blend-mode: overlay;
        opacity: .5;
      }
    </style>
  </defs>
  <g class="cls-8">
    <g id="Capa_1" data-name="Capa 1">
      <g>
        <path class="cls-4" d="M201.97,100.99c0,49.16-35.13,90.12-81.66,99.14-6.26,1.21-12.72,1.85-19.33,1.85-4.05,0-8.04-.24-11.96-.7C39.47,195.42,.91,153.7,.02,102.79c-.01-.6-.02-1.2-.02-1.81C0,45.21,45.21,0,100.99,0s97.2,41.52,100.75,94.06c.16,2.29,.23,4.6,.23,6.92Z"/>
        <path class="cls-7" d="M100.98,22.11V189.31l-11.96,11.96C39.47,195.42,.91,153.7,.02,102.79L58.14,44.67l.23-.23s0-.01,.02-.02c0,0,29.41-20.93,33.92-21.65,2.87-.46,5.77-.68,8.67-.67Z"/>
        <g>
          <g>
            <path class="cls-6" d="M161.25,182.03c-11.9,8.86-25.81,15.17-40.93,18.1-6.26,1.21-12.72,1.85-19.33,1.85h0c-4.04,0-8.04-.24-11.96-.7-17.97-2.12-34.49-8.96-48.3-19.24,5.8-21.06,23.01-37.59,44.8-42.99,.7-.17,1.39-.33,2.1-.48,4.3-.91,8.77-1.39,13.35-1.39h0c4.58,0,9.06,.48,13.36,1.39,.28,.06,.56,.12,.84,.18,.42,.1,.85,.2,1.27,.3,21.8,5.4,39,21.93,44.8,42.99Z"/>
            <path class="cls-5" d="M67.82,99.2c-.24,.64-.52,1.27-.93,1.83-.66,.89-1.6,1.52-2.55,2.1-1.24,.76-2.59,1.48-4.04,1.48h-.04c-.96,0-1.9-.33-2.73-.81-2.05-1.18-3.45-3.21-4.67-5.24-1.7-2.81-3.21-5.76-4.09-8.92-.88-3.16-1.08-6.57-.18-9.72,.23-.8,.54-1.59,.99-2.3,.95-1.47,2.52-2.43,4.24-2.84,1.15-.28,2.38-.3,3.53-.08,.4,.08,.8,.18,1.18,.31,.6,.19,1.17,.45,1.72,.75,1.66,.89,3.12,2.21,4.32,3.67,1.45,1.77,2.56,3.79,3.32,5.95,.38,1.09,.67,2.21,.86,3.36,.6,3.49,.31,7.14-.95,10.46Z"/>
            <path class="cls-5" d="M149.5,98.56c-1.22,2.02-2.62,4.06-4.67,5.24-.84,.49-1.79,.81-2.77,.81-1.45,0-2.8-.72-4.04-1.48-.95-.58-1.89-1.21-2.55-2.1-.41-.55-.69-1.19-.93-1.83-2.48-6.54-1.2-14.36,3.23-19.77,1.86-2.27,4.34-4.17,7.22-4.73,2.88-.56,6.17,.45,7.77,2.92,.45,.7,.76,1.49,.99,2.3,.91,3.15,.7,6.56-.17,9.72-.87,3.16-2.39,6.11-4.09,8.92Z"/>
            <path class="cls-1" d="M149.02,74.91c-.59,3.13-1.5,6.18-2.96,9-.46,.89-.92,1.78-1.38,2.67-1.49,2.87-2.79,5.78-3.55,8.96-.15-1.11-.29-2.22-.44-3.33-.07-.52-.14-1.05-.26-1.56-.41-1.73-.64-1.91-2.14-1.91H69.64c-.88,0-1.84-.11-2.71,0-.7,.09-1.41,.4-2.08,.6-.52,.16-1.05,.32-1.48,.65-.47,.35-.79,.87-1.06,1.39-1.04,1.98-1.63,4.19-1.71,6.43-.11-.86-.24-1.71-.4-2.55-.62-3.34-1.73-6.43-2.97-9.57-1.41-3.54-2.55-7.18-3.4-10.89-.06-.25-.11-.49-.17-.74-.01-.05-.02-.11-.03-.16-1.06-4.91-1.59-9.98-1.08-14.99,0-.03,0-.07,.01-.11,.54-5.1,2.79-9.83,5.58-14.12,.73-1.12,1.49-2.2,2.26-3.26,4.16-5.64,9.74-10.16,15.93-13.39,.92-.48,1.85-.93,2.79-1.35,4.25-1.9,8.68-3.19,13.18-3.9,2.87-.46,5.77-.68,8.67-.67,13.89,.04,27.7,5.37,38,15.29,6.93,6.68,10.4,15.64,10.91,25.17,.22,4.09-.1,8.26-.86,12.35Z"/>
            <g>
              <path class="cls-5" d="M116.45,126.02v25.95c0,8.54-6.92,15.46-15.46,15.46h0c-8.54,0-15.46-6.92-15.46-15.46v-25.95h30.92Z"/>
              <path class="cls-9" d="M116.45,121.88v15.47c-.4,.48-.83,.94-1.27,1.39-3.26,3.32-7.49,5.89-12.22,7.35-.66,.2-1.32,.38-1.98,.54-2.27,.54-4.57,.8-6.84,.8-2.98,0-5.9-.46-8.62-1.37v-24.18h30.92Z"/>
            </g>
            <path class="cls-3" d="M141.7,47.13v57.52c0,6.33-2.78,12.43-7.81,17.13-4.33,4.04-9.7,9.03-14.08,13.01-1.04,.94-2.16,1.8-3.36,2.56-.68,.43-1.38,.84-2.11,1.2-3.99,2.05-8.6,3.17-13.36,3.17-3.57,0-7.06-.63-10.27-1.81-1.06-.39-2.1-.84-3.09-1.36-.72-.37-1.42-.77-2.1-1.2-1.2-.76-2.33-1.62-3.37-2.57-4.37-3.98-9.75-8.97-14.07-13.01-5.03-4.7-7.81-10.8-7.81-17.13V47.13h81.43Z"/>
            <path class="cls-2" d="M141.7,47.13v57.52c0,6.33-2.78,12.43-7.81,17.13-4.33,4.04-9.7,9.03-14.08,13.01-1.04,.94-2.16,1.8-3.36,2.56-.68,.43-1.38,.84-2.11,1.2-3.99,2.05-8.6,3.17-13.36,3.17-3.57,0-7.06-.63-10.27-1.81-1.06-.39-2.1-.84-3.09-1.36-.72-.37-1.42-.77-2.1-1.2-1.2-.76-2.33-1.62-3.37-2.57-4.37-3.98-9.75-8.97-14.07-13.01-5-4.66-7.78-10.71-7.81-16.99V47.13h81.43Z"/>
            <path class="cls-1" d="M141.7,47.13v53.4c-.62,.36-1.35,.57-2.12,.57,0-3.02-.03-6.03-.07-9.05-.03-2.5,.91-5.85-1.19-7.69-1.99-1.74-4.58-2.21-5.21-5.03-1.04-4.65,.55-9.79-1.6-14.21-1.96-4.05-7.38-5.19-11.53-4.55-3.47,.53-6.08,3.17-9.16,4.61-3.08,1.44-6.6,2.1-9.98,2.2-4.24,.12-8.51-.7-12.38-2.43-3.75-1.67-6.95-5.75-11.39-4.84-3.44,.7-4.74,4.88-4.57,7.9,.15,2.69,.92,5.4,.38,8.04-1.05,5.13-4.61,10.48-9.46,12.68-.37,.17-.63,.26-.63,.19-.02,4.06,0,8.12,0,12.17-.95,0-1.82-.31-2.53-.84V47.13h81.43Z"/>
            <polygon class="cls-9" points="60.25 104.61 60.27 104.61 60.27 104.79 60.25 104.61"/>
          </g>
          <path class="cls-9" d="M138.45,116.16c-.11,.19-.23,.38-.35,.57-.12,.19-.24,.37-.37,.56-.08,.12-.17,.25-.25,.37-.17,.25-.35,.49-.53,.73-.07,.1-.14,.19-.22,.29-.2,.26-.41,.52-.62,.77-.1,.12-.2,.23-.3,.35-.1,.11-.2,.23-.3,.34-.1,.11-.2,.23-.31,.34-.13,.14-.27,.28-.4,.42-.1,.1-.2,.2-.3,.3-.01,.01-.02,.02-.03,.03-.08,.08-.16,.16-.24,.23-.11,.11-.22,.22-.34,.32-4.33,4.04-9.7,9.03-14.08,13.01-1.04,.94-2.16,1.8-3.36,2.56-.68,.43-1.38,.84-2.11,1.2-3.99,2.05-8.6,3.17-13.36,3.17v25.71c-8.54,0-15.46-6.92-15.46-15.46v4.14c0,8.54,6.92,15.46,15.46,15.47,9.77,0,17.68-7.92,17.68-17.68v4.74c0,9.77-7.91,17.68-17.68,17.68v25.65c-4.04,0-8.04-.24-11.96-.7-17.97-2.12-34.49-8.96-48.3-19.24,5.8-21.06,23.01-37.59,44.8-42.99v-1.68c-1.2-.76-2.33-1.62-3.37-2.57-4.37-3.98-9.75-8.97-14.07-13.01-.28-.26-.54-.52-.8-.78-.13-.13-.26-.27-.39-.4-.05-.05-.1-.11-.16-.16-.03-.03-.06-.06-.09-.09-.01-.01-.02-.02-.03-.03-.07-.08-.14-.16-.21-.23-.19-.21-.37-.42-.55-.63-.08-.1-.16-.19-.24-.29l-.18-.22c-.11-.13-.21-.27-.32-.4,0,0-.01-.02-.02-.02-.25-.33-.49-.66-.72-1-.09-.13-.17-.25-.26-.38-.03-.04-.06-.09-.08-.13-.06-.09-.11-.17-.17-.26-.16-.26-.32-.52-.48-.78-.2-.35-.4-.7-.58-1.06-.11-.22-.22-.43-.32-.65-.08-.17-.16-.34-.24-.51-.02-.05-.05-.1-.07-.15-.02-.06-.05-.11-.07-.17-.04-.1-.09-.19-.12-.29-.03-.07-.06-.15-.09-.21-.03-.07-.05-.13-.08-.2-.07-.16-.13-.32-.19-.48-.02-.05-.04-.11-.06-.16-.01-.04-.03-.08-.04-.11-.04-.12-.09-.24-.12-.36-.03-.09-.07-.19-.09-.28-.03-.09-.06-.19-.09-.28-.06-.19-.11-.39-.17-.58,0-.03-.01-.06-.02-.08-.04-.16-.09-.32-.12-.48-.05-.19-.09-.38-.14-.58-.04-.19-.08-.38-.12-.58-.04-.19-.07-.39-.1-.58-.03-.19-.06-.39-.09-.58-.02-.16-.04-.31-.06-.47,0-.01,0-.02,0-.03,0-.03,0-.06-.01-.09,0-.08-.02-.16-.02-.24,0-.02,0-.04,0-.07-.01-.16-.03-.32-.04-.48,0-.11-.02-.23-.02-.35,0-.04,0-.08,0-.12,0-.15-.01-.29-.02-.43,0-.02,0-.04,0-.06,0-.16,0-.32,0-.48v-.18h-.04c-.11,0-.21,0-.32-.02-.06,0-.12-.01-.18-.02-.04,0-.09-.01-.14-.02-.02,0-.04,0-.06-.01-.11-.02-.22-.04-.32-.07,0,0-.01,0-.02,0-.46-.11-.91-.29-1.34-.5-.11-.06-.21-.11-.31-.17-2.05-1.18-3.45-3.21-4.67-5.24-1.7-2.81-3.21-5.76-4.09-8.92-.88-3.16-1.08-6.57-.18-9.72,.23-.8,.54-1.6,.99-2.3,.95-1.47,2.51-2.43,4.23-2.84-.06-.25-.11-.49-.16-.74-.01-.05-.02-.11-.03-.16-1.01-4.81-1.39-9.96-1.07-15.1,.68-6.43,4.08-12.27,7.85-17.37,4.16-5.64,9.74-10.16,15.93-13.39,5.08-2.64,10.47-4.38,15.97-5.25-18.88,7.14-15.49,21.64-14.31,25.13,4.5,13.28,22.96,19.48,22.96,19.48,3.34-.11,6.83-.77,9.87-2.2,3.08-1.44,5.69-4.08,9.16-4.61,2.36-.36,5.13-.15,7.44,.85-2.42-.7-5.2-.58-7.49,.07-3.38,.95-5.74,3.74-8.52,5.7-2.18,1.53-3.98,2.46-5.44,3-3,1.12-5.03,3.92-5.03,7.12l-.02,11.42v3.59c-1.11,10.82,.05,22.5,.05,33.49,0,.07,0,.14,0,.21,.14,7.7,8.15,12.93,15.17,9.67,.1-.04,.2-.09,.29-.14,0,0,.02,0,.02-.01,.72-.37,1.42-.77,2.1-1.2,1.2-.76,2.33-1.62,3.36-2.56,4.38-3.98,9.75-8.97,14.08-13.01,.88-.83,1.7-1.7,2.44-2.6Z"/>
          <path class="cls-9" d="M141.7,100.53v.4c-.12,.02-.24,.04-.36,.06-.01-.09-.02-.17-.03-.26,.13-.06,.26-.12,.39-.2Z"/>
        </g>
      </g>
    </g>
  </g>
</svg>