<?xml version="1.0" encoding="UTF-8"?>
<svg id="Capa_1" data-name="Capa 1" xmlns="http://www.w3.org/2000/svg" viewBox="0 0 210 210">
  <defs>
    <style>
      .cls-1 {
        fill: #f5333f;
      }

      .cls-2 {
        fill: #fff;
      }

      .cls-3 {
        fill: #2d2a26;
      }
    </style>
  </defs>
  <circle class="cls-1" cx="105" cy="105" r="105"/>
  <path class="cls-3" d="M194.76,62.45c-2.14-.97-4.65-.58-6.41,.98l-84.01,74.47L20.9,66.31c-1.51-1.34-3.94-1.09-5.1,.03-.94,.89-1.03,2.22-.25,3.28-.06,.39-.59,1.24-1.14,1.82l-1.18,1.23,87.16,77.66c2.26,2.01,5.67,2.01,7.94,0l78.02-69.15v64.69c0,3.3,2.68,5.98,5.98,5.98s5.98-2.68,5.98-5.98V67.89c0-2.34-1.38-4.48-3.52-5.45h0Z"/>
  <path class="cls-2" d="M172.12,70.12h0c-5.34-4.34-12.9-6.63-21.87-6.63H17.67c-3.15,0-5.7,2.56-5.7,5.7s2.56,5.7,5.7,5.7H150.24c12.25,0,18.99,4.9,18.99,13.79s-6.74,13.79-18.99,13.79H15.93v44.69c0,3.15,2.56,5.7,5.7,5.7s5.7-2.56,5.7-5.7v-33.29h122.9c8.96,0,16.53-2.29,21.87-6.63,5.58-4.53,8.52-10.95,8.52-18.56s-2.95-14.03-8.52-18.56h0Z"/>
</svg>