<?xml version="1.0" encoding="UTF-8"?>
<svg id="Capa_1" data-name="Capa 1" xmlns="http://www.w3.org/2000/svg" viewBox="0 0 299.81 152.71">
  <defs>
    <style>
      .cls-1 {
        fill: #fff;
      }

      .cls-2 {
        fill: #2d2a26;
      }
    </style>
  </defs>
  <g>
    <path class="cls-1" d="M29.82,138.13c-1.38-1.12-3.31-1.71-5.59-1.71H7.83c-2.28,0-4.21,.59-5.59,1.71-1.46,1.19-2.24,2.87-2.24,4.86v7.87c0,1.02,.83,1.85,1.85,1.85h0c1.02,0,1.85-.83,1.85-1.85v-4.44H28.36v4.44c0,1.02,.83,1.85,1.85,1.85s1.85-.83,1.85-1.85v-7.87c0-1.99-.77-3.67-2.24-4.86Zm-25.25,2.87h0c.71-.58,1.84-.88,3.26-.88H24.23c1.42,0,2.55,.31,3.26,.88,.52,.42,.81,.99,.86,1.71H3.71c.06-.73,.34-1.29,.86-1.71Z"/>
    <path class="cls-1" d="M63.68,136.42c-1.02,0-1.85,.83-1.85,1.85v7.87c0,.86-.29,1.51-.87,1.99-.7,.57-1.86,.88-3.26,.88h-16.4c-1.4,0-2.56-.31-3.26-.88-.59-.48-.87-1.13-.87-1.99v-7.87c0-1.02-.83-1.85-1.85-1.85s-1.85,.83-1.85,1.85v7.87c0,1.99,.77,3.67,2.24,4.86h0c1.38,1.12,3.31,1.71,5.59,1.71h16.4c2.28,0,4.21-.59,5.59-1.71,1.46-1.19,2.24-2.87,2.24-4.86v-7.87c0-1.02-.83-1.85-1.85-1.85Z"/>
    <path class="cls-1" d="M97.15,136.42h-28.36c-1.02,0-1.85,.83-1.85,1.85s.83,1.85,1.85,1.85h12.33v10.74c0,1.02,.83,1.85,1.85,1.85s1.85-.83,1.85-1.85v-10.74h12.33c1.02,0,1.85-.83,1.85-1.85s-.83-1.85-1.85-1.85Z"/>
    <path class="cls-1" d="M130.23,138.13c-1.38-1.12-3.31-1.71-5.59-1.71h-16.4c-2.28,0-4.21,.59-5.59,1.71-1.46,1.19-2.24,2.87-2.24,4.86v3.15c0,1.99,.77,3.67,2.24,4.86,1.38,1.12,3.31,1.71,5.59,1.71h16.4c2.28,0,4.21-.59,5.59-1.71,1.46-1.19,2.24-2.87,2.24-4.86v-3.15c0-1.99-.77-3.67-2.24-4.86Zm-1.46,4.86v3.15c0,.86-.28,1.51-.87,1.99-.71,.58-1.84,.88-3.26,.88h-16.4c-1.42,0-2.55-.31-3.26-.88-.59-.48-.87-1.13-.87-1.99v-3.15c0-.86,.29-1.51,.87-1.99,.71-.58,1.84-.88,3.26-.88h16.4c1.42,0,2.55,.31,3.26,.88,.59,.48,.87,1.13,.87,1.99Z"/>
    <path class="cls-1" d="M164.22,144c-1.03-.84-2.45-1.28-4.12-1.28h-20.39c-1.42,0-2.14-.44-2.14-1.3s.72-1.3,2.14-1.3h22.8c1.02,0,1.85-.83,1.85-1.85s-.83-1.85-1.85-1.85h-22.8c-1.66,0-3.09,.44-4.12,1.28-1.11,.9-1.72,2.22-1.72,3.72s.61,2.82,1.72,3.72c1.03,.84,2.45,1.28,4.12,1.28h20.39c1.42,0,2.14,.44,2.14,1.3s-.72,1.3-2.14,1.3h-23.85c-1.02,0-1.85,.83-1.85,1.85s.83,1.85,1.85,1.85h23.85c1.66,0,3.09-.44,4.12-1.28,1.11-.9,1.72-2.22,1.72-3.72s-.61-2.81-1.72-3.72Z"/>
    <path class="cls-1" d="M197.17,138.14c-1.38-1.12-3.31-1.71-5.59-1.71h-16.4c-2.28,0-4.21,.59-5.59,1.71-1.46,1.19-2.24,2.87-2.24,4.86v7.87c0,1.02,.83,1.85,1.85,1.85s1.85-.83,1.85-1.85v-4.44h24.66v4.44c0,1.02,.83,1.85,1.85,1.85s1.85-.83,1.85-1.85v-7.87c0-1.99-.77-3.67-2.24-4.86Zm-25.98,1.98l.73,.89c.71-.58,1.84-.88,3.26-.88h16.4c1.42,0,2.55,.31,3.26,.88,.52,.42,.8,.99,.86,1.71h-24.64c.06-.73,.34-1.29,.86-1.71l-.72-.89Z"/>
    <path class="cls-1" d="M231.03,149.01h-22.38c-1.4,0-2.56-.31-3.26-.88-.59-.48-.87-1.13-.87-1.99v-7.87c0-1.02-.83-1.85-1.85-1.85s-1.85,.83-1.85,1.85v7.87c0,1.99,.77,3.67,2.24,4.86l.72-.89-.73,.89c1.38,1.12,3.31,1.71,5.59,1.71h22.38c1.02,0,1.85-.83,1.85-1.85s-.83-1.85-1.85-1.85Z"/>
    <path class="cls-1" d="M238.85,141c.71-.58,1.84-.88,3.26-.88h22.38c1.02,0,1.85-.83,1.85-1.85s-.83-1.85-1.85-1.85h-22.38c-2.28,0-4.21,.59-5.59,1.71-1.46,1.19-2.24,2.87-2.24,4.86v3.15c0,1.79,.62,3.32,1.81,4.48l.42,.38c1.38,1.12,3.31,1.71,5.59,1.71h22.38c1.02,0,1.85-.83,1.85-1.85s-.83-1.85-1.85-1.85h-22.38c-1.42,0-2.55-.31-3.26-.88-.52-.42-.81-.99-.86-1.71h25.45c1.02,0,1.85-.83,1.85-1.85s-.83-1.85-1.85-1.85h-25.45c.06-.73,.34-1.29,.86-1.71Z"/>
    <path class="cls-1" d="M298.09,144c-1.03-.84-2.45-1.28-4.12-1.28h-20.39c-1.42,0-2.14-.44-2.14-1.3s.72-1.3,2.14-1.3h22.8c1.02,0,1.85-.83,1.85-1.85s-.83-1.85-1.85-1.85h-22.8c-1.66,0-3.09,.44-4.12,1.28-1.11,.9-1.72,2.22-1.72,3.72s.61,2.82,1.72,3.72c1.03,.84,2.45,1.28,4.12,1.28h20.39c1.42,0,2.14,.44,2.14,1.3s-.72,1.3-2.14,1.3h-23.85c-1.02,0-1.85,.83-1.85,1.85s.83,1.85,1.85,1.85h23.85c1.66,0,3.09-.44,4.12-1.28,1.11-.9,1.72-2.22,1.72-3.72s-.61-2.81-1.72-3.72Z"/>
  </g>
  <path class="cls-2" d="M278.52,.73c-2.99-1.35-6.51-.81-8.97,1.37l-117.51,104.17L35.33,6.13c-2.11-1.87-5.51-1.52-7.14,.04-1.31,1.25-1.44,3.11-.35,4.59-.09,.54-.83,1.74-1.6,2.55l-1.65,1.72,121.92,108.63c3.16,2.81,7.93,2.81,11.1,0L266.74,26.93V117.42c0,4.61,3.75,8.36,8.36,8.36s8.36-3.75,8.36-8.36V8.35c0-3.28-1.93-6.27-4.93-7.62Z"/>
  <path class="cls-1" d="M246.85,11.46h0c-7.47-6.07-18.05-9.28-30.59-9.28H30.8c-4.4,0-7.98,3.58-7.98,7.98s3.58,7.98,7.98,7.98H216.25c17.13,0,26.56,6.85,26.56,19.29s-9.43,19.29-26.56,19.29H28.38v62.51c0,4.4,3.58,7.98,7.98,7.98s7.98-3.58,7.98-7.98v-46.56H216.25c12.54,0,23.12-3.21,30.59-9.28,7.8-6.34,11.92-15.32,11.92-25.96s-4.12-19.62-11.92-25.96Z"/>
</svg>