<?xml version="1.0" encoding="UTF-8"?>
<svg id="Capa_1" data-name="Capa 1" xmlns="http://www.w3.org/2000/svg" viewBox="0 0 513.91 511.12">
  <defs>
    <style>
      .cls-1, .cls-2, .cls-3, .cls-4, .cls-5, .cls-6, .cls-7, .cls-8, .cls-9, .cls-10, .cls-11, .cls-12, .cls-13, .cls-14, .cls-15, .cls-16, .cls-17, .cls-18, .cls-19, .cls-20, .cls-21, .cls-22, .cls-23, .cls-24, .cls-25, .cls-26, .cls-27, .cls-28, .cls-29, .cls-30, .cls-31, .cls-32, .cls-33, .cls-34, .cls-35, .cls-36, .cls-37, .cls-38, .cls-39, .cls-40, .cls-41, .cls-42, .cls-43, .cls-44, .cls-45, .cls-46, .cls-47, .cls-48, .cls-49, .cls-50, .cls-51, .cls-52, .cls-53, .cls-54, .cls-55, .cls-56, .cls-57, .cls-58, .cls-59, .cls-60, .cls-61, .cls-62, .cls-63, .cls-64, .cls-65, .cls-66, .cls-67, .cls-68, .cls-69, .cls-70, .cls-71, .cls-72, .cls-73, .cls-74, .cls-75, .cls-76, .cls-77, .cls-78, .cls-79, .cls-80, .cls-81, .cls-82, .cls-83, .cls-84, .cls-85, .cls-86, .cls-87, .cls-88 {
        fill: #fff;
      }

      .cls-2 {
        opacity: .88;
      }

      .cls-2, .cls-3, .cls-4, .cls-5, .cls-6, .cls-7, .cls-8, .cls-9, .cls-10, .cls-11, .cls-12, .cls-13, .cls-14, .cls-15, .cls-16, .cls-17, .cls-18, .cls-19, .cls-20, .cls-21, .cls-22, .cls-23, .cls-24, .cls-25, .cls-26, .cls-27, .cls-28, .cls-29, .cls-30, .cls-31, .cls-32, .cls-33, .cls-34, .cls-35, .cls-36, .cls-37, .cls-38, .cls-39, .cls-40, .cls-41, .cls-42, .cls-43, .cls-44, .cls-45, .cls-46, .cls-47, .cls-48, .cls-49, .cls-50, .cls-51, .cls-52, .cls-53, .cls-54, .cls-55, .cls-56, .cls-57, .cls-58, .cls-59, .cls-60, .cls-61, .cls-62, .cls-63, .cls-64, .cls-65, .cls-66, .cls-67, .cls-68, .cls-69, .cls-70, .cls-71, .cls-72, .cls-73, .cls-74, .cls-75, .cls-76, .cls-77, .cls-78, .cls-79, .cls-80, .cls-81, .cls-82, .cls-83, .cls-84, .cls-85, .cls-86, .cls-87 {
        isolation: isolate;
      }

      .cls-2, .cls-3, .cls-4, .cls-5, .cls-6, .cls-7, .cls-8, .cls-9, .cls-10, .cls-11, .cls-12, .cls-13, .cls-14, .cls-15, .cls-16, .cls-17, .cls-18, .cls-19, .cls-20, .cls-21, .cls-22, .cls-23, .cls-24, .cls-25, .cls-26, .cls-27, .cls-28, .cls-29, .cls-30, .cls-31, .cls-32, .cls-33, .cls-34, .cls-35, .cls-36, .cls-37, .cls-38, .cls-39, .cls-40, .cls-41, .cls-42, .cls-43, .cls-44, .cls-45, .cls-46, .cls-47, .cls-48, .cls-49, .cls-50, .cls-51, .cls-52, .cls-53, .cls-54, .cls-55, .cls-56, .cls-57, .cls-58, .cls-59, .cls-60, .cls-61, .cls-62, .cls-63, .cls-64, .cls-65, .cls-66, .cls-67, .cls-68, .cls-69, .cls-70, .cls-71, .cls-72, .cls-73, .cls-74, .cls-75, .cls-76, .cls-77, .cls-78, .cls-79, .cls-80, .cls-81, .cls-82, .cls-83, .cls-84, .cls-85, .cls-86, .cls-87, .cls-88 {
        fill-rule: evenodd;
      }

      .cls-3 {
        opacity: .87;
      }

      .cls-4 {
        opacity: .88;
      }

      .cls-5 {
        opacity: .85;
      }

      .cls-6 {
        opacity: .85;
      }

      .cls-7 {
        opacity: .84;
      }

      .cls-8 {
        opacity: .83;
      }

      .cls-9 {
        opacity: .82;
      }

      .cls-10 {
        opacity: .84;
      }

      .cls-11 {
        opacity: .81;
      }

      .cls-12 {
        opacity: .79;
      }

      .cls-13 {
        opacity: .81;
      }

      .cls-14 {
        opacity: .81;
      }

      .cls-15 {
        opacity: .8;
      }

      .cls-16 {
        opacity: .8;
      }

      .cls-17 {
        opacity: .78;
      }

      .cls-18 {
        opacity: .89;
      }

      .cls-19 {
        opacity: .83;
      }

      .cls-20 {
        opacity: .83;
      }

      .cls-21 {
        opacity: .94;
      }

      .cls-22 {
        opacity: .93;
      }

      .cls-23 {
        opacity: .93;
      }

      .cls-24 {
        opacity: .93;
      }

      .cls-25 {
        opacity: .92;
      }

      .cls-26 {
        opacity: .93;
      }

      .cls-27 {
        opacity: .94;
      }

      .cls-28 {
        opacity: .94;
      }

      .cls-29 {
        opacity: .93;
      }

      .cls-30 {
        opacity: .92;
      }

      .cls-31 {
        opacity: .91;
      }

      .cls-32 {
        opacity: .9;
      }

      .cls-33 {
        opacity: .9;
      }

      .cls-34 {
        opacity: .92;
      }

      .cls-35 {
        opacity: .92;
      }

      .cls-36 {
        opacity: .89;
      }

      .cls-37 {
        opacity: .9;
      }

      .cls-38 {
        opacity: .9;
      }

      .cls-39 {
        opacity: .88;
      }

      .cls-40 {
        opacity: .88;
      }

      .cls-41 {
        opacity: .62;
      }

      .cls-42 {
        opacity: .69;
      }

      .cls-43 {
        opacity: .99;
      }

      .cls-44 {
        opacity: .99;
      }

      .cls-45 {
        opacity: .99;
      }

      .cls-46 {
        opacity: 1;
      }

      .cls-47 {
        opacity: .99;
      }

      .cls-48 {
        opacity: .98;
      }

      .cls-49 {
        opacity: .98;
      }

      .cls-50 {
        opacity: 1;
      }

      .cls-51 {
        opacity: 1;
      }

      .cls-52 {
        opacity: .97;
      }

      .cls-53 {
        opacity: .99;
      }

      .cls-54 {
        opacity: .98;
      }

      .cls-55 {
        opacity: .99;
      }

      .cls-56 {
        opacity: .98;
      }

      .cls-57 {
        opacity: .98;
      }

      .cls-58 {
        opacity: .97;
      }

      .cls-59 {
        opacity: .97;
      }

      .cls-60 {
        opacity: .97;
      }

      .cls-61 {
        opacity: .98;
      }

      .cls-62 {
        opacity: .98;
      }

      .cls-63 {
        opacity: .96;
      }

      .cls-64 {
        opacity: .98;
      }

      .cls-65 {
        opacity: .98;
      }

      .cls-66 {
        opacity: .98;
      }

      .cls-67 {
        opacity: .96;
      }

      .cls-68 {
        opacity: .97;
      }

      .cls-69 {
        opacity: .97;
      }

      .cls-70 {
        opacity: .97;
      }

      .cls-71 {
        opacity: .96;
      }

      .cls-72 {
        opacity: .96;
      }

      .cls-73 {
        opacity: .96;
      }

      .cls-74 {
        opacity: .96;
      }

      .cls-75 {
        opacity: .95;
      }

      .cls-76 {
        opacity: .94;
      }

      .cls-77 {
        opacity: .97;
      }

      .cls-78 {
        opacity: .96;
      }

      .cls-79 {
        opacity: .95;
      }

      .cls-80 {
        opacity: .95;
      }

      .cls-81 {
        opacity: .94;
      }

      .cls-82 {
        opacity: .94;
      }

      .cls-83 {
        opacity: .99;
      }

      .cls-84 {
        opacity: .99;
      }

      .cls-85 {
        opacity: .99;
      }

      .cls-86 {
        opacity: .95;
      }

      .cls-87 {
        opacity: .95;
      }
    </style>
  </defs>
  <path class="cls-30" d="M254.09,.17c-3.44,1.37-7.18,1.83-11.23,1.4h-18.24V7.19h-22.45v5.61c-6.36-.45-12.44,.02-18.24,1.4-7.41-.96-14.9-.96-22.45,0v4.21h-5.61v-5.61h11.23c-.24-1.86,.23-3.49,1.4-4.91,5.12-.7,10.27-.93,15.44-.7V1.57c23.38-.61,46.77-1.07,70.16-1.4Z"/>
  <path class="cls-53" d="M155.86,1.57V7.19h5.61V1.57h22.45V7.19c-5.17-.23-10.31,0-15.44,.7-1.17,1.42-1.64,3.06-1.4,4.91h-11.23v5.61c-9.42-.3-18.77,.17-28.07,1.4,.33,1.81-.13,3.21-1.4,4.21-5.66,0-11.27,.47-16.84,1.4v4.21c-9.34,.64-18.7,1.1-28.07,1.4v4.21h-7.02v7.02h-5.61c-6.82,.45-13.37-.02-19.65-1.4,1.07-2.47,2.94-3.88,5.61-4.21,4.71-.16,9.39-.63,14.03-1.4v-4.21c5.59-.73,11.2-1.2,16.84-1.4v-4.21c6.05-.81,12.13-1.28,18.24-1.4v-4.21c3.74-.47,7.48-.94,11.23-1.4v-4.21c2.69,.4,5.03-.07,7.02-1.4h11.23V7.19h16.84V2.98c2.05,.09,3.92-.37,5.61-1.4Z"/>
  <path class="cls-11" d="M155.86,1.57h5.61V7.19h-5.61V1.57Z"/>
  <path class="cls-88" d="M242.87,1.57V7.19h-11.23v5.61h-12.63V7.19h5.61V1.57h18.24Z"/>
  <path class="cls-88" d="M254.09,.17c15.69-.46,31.12,0,46.31,1.4h-29.47V7.19h-28.07V1.57c4.05,.43,7.79-.04,11.23-1.4Z"/>
  <path class="cls-88" d="M300.4,1.57h16.84V7.19h-11.23v5.61c-5.63-.23-11.25,0-16.84,.7-1.17,1.42-1.64,3.06-1.4,4.91-9.62-.45-18.97,.01-28.07,1.4h-5.61v4.21c-7.55-.25-15.03,.22-22.45,1.4h-7.02v4.21h-22.45v-4.21h-5.61c.24,1.86-.23,3.49-1.4,4.91-3.87,1.01-7.62,.78-11.23-.7v-4.21c2.69,.4,5.03-.07,7.02-1.4h11.23v-4.21c5.57-.93,11.18-1.4,16.84-1.4v-4.21c4.05,.43,7.79-.04,11.23-1.4h23.86V7.19h16.84V1.57h29.47Z"/>
  <path class="cls-84" d="M317.24,1.57h29.47V12.8h-5.61c-6.11,.12-12.19,.59-18.24,1.4v4.21c-2.24-.38-4.11,.09-5.61,1.4h-28.07v4.21h-23.86v-4.21h-5.61c9.09-1.39,18.45-1.86,28.07-1.4-.24-1.86,.23-3.49,1.4-4.91,5.59-.7,11.21-.93,16.84-.7V7.19h11.23V1.57Z"/>
  <path class="cls-39" d="M346.71,1.57c7.52-.04,15.01,.43,22.45,1.4V7.19h-22.45V1.57Z"/>
  <path class="cls-8" d="M150.25,2.98V7.19h-33.68c10.84-2.95,22.07-4.35,33.68-4.21Z"/>
  <path class="cls-14" d="M369.16,2.98c10.65,.12,20.94,1.52,30.87,4.21h-25.26v5.61h-9.82V7.19h4.21V2.98Z"/>
  <path class="cls-51" d="M115.17,7.19h18.24v5.61h-18.24V7.19Z"/>
  <path class="cls-88" d="M219.01,7.19v5.61h11.23c-3.44,1.37-7.18,1.83-11.23,1.4v4.21c-5.66,0-11.27,.47-16.84,1.4v4.21h-11.23v-4.21h-5.61v4.21h-18.24v-4.21c5.57-.93,11.18-1.4,16.84-1.4v-4.21c5.8-1.38,11.88-1.85,18.24-1.4V7.19h16.84Z"/>
  <path class="cls-88" d="M242.87,7.19h11.23v5.61h-22.45V7.19h11.23Z"/>
  <path class="cls-88" d="M346.71,7.19h16.84v5.61h-16.84V7.19Z"/>
  <path class="cls-49" d="M363.55,7.19h1.4v5.61h9.82V7.19h25.26c12,1.82,23.23,5.56,33.68,11.23-8-.18-15.96,.29-23.86,1.4v4.21h-5.61v-5.61c-4.84-1.04-7.18,.83-7.02,5.61h-33.68v-4.21c-11.95,.46-23.64-.01-35.08-1.4h5.61v-4.21c2.69,.4,5.03-.07,7.02-1.4h22.45V7.19Z"/>
  <path class="cls-9" d="M115.17,7.19v5.61c-6.36,.65-12.44,.65-18.24,0,5.61-2.93,11.7-4.8,18.24-5.61Z"/>
  <path class="cls-75" d="M96.93,12.8c5.81,.65,11.89,.65,18.24,0h7.02c-1.99,1.33-4.33,1.8-7.02,1.4v4.21c-3.74,.47-7.48,.94-11.23,1.4v4.21c-6.11,.12-12.19,.59-18.24,1.4v4.21c-5.64,.2-11.25,.67-16.84,1.4v4.21c-4.64,.77-9.32,1.24-14.03,1.4,7.91-8.17,17.26-14.25,28.07-18.24h9.82v-4.21c.99-1.27,2.4-1.74,4.21-1.4Z"/>
  <path class="cls-88" d="M183.93,14.2v4.21c-5.66,0-11.27,.47-16.84,1.4v4.21h-11.23c-9.8,.83-19.62,1.29-29.47,1.4v-1.4c1.27-.99,1.74-2.4,1.4-4.21,9.29-1.23,18.65-1.7,28.07-1.4h5.61v-4.21c7.55-.96,15.04-.96,22.45,0Z"/>
  <path class="cls-88" d="M341.09,12.8c-1.99,1.33-4.33,1.8-7.02,1.4v4.21h-11.23v-4.21c6.05-.81,12.13-1.28,18.24-1.4Z"/>
  <path class="cls-15" d="M92.72,14.2v4.21h-9.82c2.82-2.2,6.09-3.6,9.82-4.21Z"/>
  <path class="cls-88" d="M322.85,18.41h5.61c11.44,1.39,23.13,1.86,35.08,1.4v4.21c-5.33,1.38-10.94,1.85-16.84,1.4v4.21c-8.14,.72-16.09,1.19-23.86,1.4v-12.63Z"/>
  <path class="cls-69" d="M433.71,18.41c10.8,3.99,20.16,10.07,28.07,18.24h-28.07c-1.03-1.69-1.5-3.57-1.4-5.61-3.74-.47-7.48-.94-11.23-1.4v-4.21h-5.61v9.82h-5.61v-9.82h-11.23v4.21h-12.63v-4.21c-3.59,.42-6.87-.04-9.82-1.4h21.05c-.16-4.79,2.18-6.66,7.02-5.61v5.61h5.61v-4.21c7.9-1.11,15.85-1.58,23.86-1.4Z"/>
  <path class="cls-88" d="M190.94,24.03c-1.99,1.33-4.33,1.8-7.02,1.4v4.21c-5.57,.93-11.18,1.4-16.84,1.4v4.21c-9.77,1.18-19.6,1.65-29.47,1.4h-9.82c.09,2.05-.37,3.92-1.4,5.61h-16.84c1.5-1.31,3.37-1.78,5.61-1.4v-4.21c3.77,.23,7.51,0,11.23-.7,1.17-1.42,1.64-3.06,1.4-4.91,7.03-.35,14.04-.82,21.05-1.4v-4.21c2.69,.4,5.03-.07,7.02-1.4h29.47v-4.21h5.61v4.21Z"/>
  <path class="cls-88" d="M259.7,19.82h5.61v4.21h23.86c0,.94-.47,1.4-1.4,1.4h-11.23v5.61h-22.45v4.21c-9.8,.83-19.62,1.29-29.47,1.4v5.61h-33.68v5.61h-1.4v-5.61h-4.21c2.96-1.36,6.23-1.83,9.82-1.4-.24-1.86,.23-3.49,1.4-4.91,3.71-.7,7.46-.93,11.23-.7v-4.21c2.24,.38,4.11-.09,5.61-1.4h18.24v-4.21c7.42-1.18,14.9-1.65,22.45-1.4v-4.21h5.61Z"/>
  <path class="cls-88" d="M317.24,19.82v4.21h-28.07v-4.21h28.07Z"/>
  <path class="cls-88" d="M322.85,18.41v12.63h-11.23c-7.45-1.09-14.93-1.32-22.45-.7-1.17-1.42-1.64-3.06-1.4-4.91,.94,0,1.4-.47,1.4-1.4h28.07v-4.21c1.5-1.31,3.37-1.78,5.61-1.4Z"/>
  <path class="cls-46" d="M155.86,24.03c-1.99,1.33-4.33,1.8-7.02,1.4v4.21c-7.01,.58-14.02,1.05-21.05,1.4,.24,1.86-.23,3.49-1.4,4.91-3.71,.7-7.46,.93-11.23,.7v4.21c-2.24-.38-4.11,.09-5.61,1.4h-16.84v5.61h-12.63v5.61h-5.61v5.61h-11.23c-3.74,.47-7.48,.94-11.23,1.4v4.21c-5.59,.73-11.2,1.2-16.84,1.4,.24,1.86-.23,3.49-1.4,4.91-2.77,.69-5.57,.93-8.42,.7,.86-2.71,2.26-5.05,4.21-7.02h4.21c-.24-1.86,.23-3.49,1.4-4.91,5.59-.7,11.21-.93,16.84-.7v-5.61h5.61v-5.61c3.8-.11,7.54-.57,11.23-1.4v-4.21h5.61c1.31-1.5,1.78-3.37,1.4-5.61h5.61v4.21h4.21v-4.21c7.96-.36,15.91-.83,23.86-1.4v-4.21h11.23v-5.61h5.61c9.84-.11,19.67-.58,29.47-1.4Z"/>
  <path class="cls-88" d="M363.55,24.03h12.63c2.96,1.36,6.23,1.83,9.82,1.4v4.21h12.63v-4.21h11.23v9.82c-11.75,1.1-23.44,1.57-35.08,1.4v4.21c-2.24-.38-4.11,.09-5.61,1.4h-39.29c-1.03-1.7-1.5-3.57-1.4-5.61h-5.61v5.61h-4.21c-11.88-.25-24.04-.25-36.48,0v-5.61h7.02v4.21h4.21v-4.21c6.05-.81,12.13-1.28,18.24-1.4v-4.21h11.23c7.77-.22,15.72-.68,23.86-1.4v-4.21c5.9,.44,11.51-.02,16.84-1.4Z"/>
  <path class="cls-72" d="M213.4,29.64c-1.5,1.31-3.37,1.78-5.61,1.4v4.21c-3.77-.23-7.51,0-11.23,.7-1.17,1.42-1.64,3.06-1.4,4.91-3.59-.42-6.87,.04-9.82,1.4h-23.86v5.61c-2.24-.38-4.11,.09-5.61,1.4-25.91,.15-49.29,7.64-70.16,22.45-3.03-1.29-6.31-1.29-9.82,0v4.21h-7.02v-4.21c4.84,1.04,7.18-.83,7.02-5.61,5.08-1.04,10.22-1.51,15.44-1.4-.24-1.86,.23-3.49,1.4-4.91,3.71-.7,7.46-.93,11.23-.7v-5.61h11.23v-5.61h5.61v-5.61h5.61c1.27,.99,1.74,2.4,1.4,4.21h4.21v-4.21h5.61v-5.61c9.87,.24,19.69-.22,29.47-1.4v-4.21c5.66,0,11.27-.47,16.84-1.4,3.61,1.48,7.35,1.71,11.23,.7,1.17-1.42,1.64-3.06,1.4-4.91h5.61v4.21h11.23Z"/>
  <path class="cls-88" d="M231.64,25.43v4.21h-7.02v-4.21h7.02Z"/>
  <path class="cls-88" d="M287.77,25.43c-.24,1.86,.23,3.49,1.4,4.91,7.52-.62,15-.38,22.45,.7v4.21c-6.11,.12-12.19,.59-18.24,1.4v4.21h-4.21v-4.21h-7.02v5.61h-28.07c3.44-1.37,7.18-1.83,11.23-1.4v-4.21c-4.05,.43-7.79-.04-11.23-1.4v-4.21h22.45v-5.61h11.23Z"/>
  <path class="cls-88" d="M433.71,36.66c-6.13,.05-12.21-.42-18.24-1.4v-9.82h5.61v4.21c3.74,.47,7.48,.94,11.23,1.4-.09,2.05,.37,3.92,1.4,5.61Z"/>
  <path class="cls-88" d="M126.39,24.03v1.4h-5.61v5.61h-11.23v4.21c-7.94,.57-15.9,1.04-23.86,1.4v4.21h-4.21v-4.21h-5.61c.38,2.24-.09,4.11-1.4,5.61v-7.02h7.02v-4.21c9.37-.3,18.72-.77,28.07-1.4v-4.21c5.57-.93,11.18-1.4,16.84-1.4Z"/>
  <path class="cls-88" d="M254.09,35.25c3.44,1.37,7.18,1.83,11.23,1.4v4.21c-4.05-.43-7.79,.04-11.23,1.4h-29.47v-5.61c9.84-.11,19.67-.58,29.47-1.4Z"/>
  <path class="cls-66" d="M409.85,35.25h5.61c6.03,.98,12.11,1.45,18.24,1.4h28.07c8.96,5.68,15.97,13.17,21.05,22.45h-32.27v-5.61h-12.63v-5.61h-11.23v5.61h-5.61v-5.61h-28.07v-5.61h-18.24v5.61h-5.61v-5.61c1.5-1.31,3.37-1.78,5.61-1.4v-4.21c11.64,.17,23.34-.3,35.08-1.4Z"/>
  <path class="cls-88" d="M137.62,36.66v5.61h-5.61v4.21h-4.21c.33-1.81-.13-3.21-1.4-4.21,1.03-1.7,1.5-3.57,1.4-5.61h9.82Z"/>
  <path class="cls-88" d="M329.87,42.27h-7.02v-5.61h5.61c-.09,2.05,.37,3.92,1.4,5.61Z"/>
  <path class="cls-24" d="M49.22,40.87c6.27,1.38,12.82,1.85,19.65,1.4v4.21c-3.69,.83-7.43,1.3-11.23,1.4v5.61h-5.61v5.61c-5.63-.23-11.25,0-16.84,.7-1.17,1.42-1.64,3.06-1.4,4.91h-4.21c2.79-5.55,6.29-10.7,10.52-15.44,2.86-3.1,5.9-5.9,9.12-8.42Z"/>
  <path class="cls-21" d="M318.64,42.27c-1.31,1.5-1.78,3.37-1.4,5.61h-57.53v-5.61h22.45c12.44-.25,24.61-.25,36.48,0Z"/>
  <path class="cls-88" d="M103.94,42.27v5.61h-11.23v-5.61h11.23Z"/>
  <path class="cls-50" d="M103.94,42.27h16.84v5.61h-5.61v5.61h-11.23v5.61c-3.77-.23-7.51,0-11.23,.7-1.17,1.42-1.64,3.06-1.4,4.91-5.21-.11-10.36,.36-15.44,1.4,.16,4.79-2.18,6.66-7.02,5.61v4.21h-11.23v5.61c-2.24-.38-4.11,.09-5.61,1.4H23.96c.16,4.79-2.18,6.66-7.02,5.61,.69-2.1,1.62-3.97,2.81-5.61,2.72-.91,5.52-1.38,8.42-1.4v-4.21c4.84,1.04,7.18-.83,7.02-5.61,5.66,0,11.27-.47,16.84-1.4v-5.61h11.23v-5.61h11.23v-5.61h5.61v-5.61h23.86v-5.61Z"/>
  <path class="cls-2" d="M185.33,42.27h4.21v5.61c-11.2,.93-22.43,1.4-33.68,1.4,1.5-1.31,3.37-1.78,5.61-1.4v-5.61h23.86Z"/>
  <path class="cls-28" d="M224.62,42.27v5.61h-33.68v-5.61h33.68Z"/>
  <path class="cls-28" d="M224.62,42.27h35.08v5.61h-35.08v-5.61Z"/>
  <path class="cls-29" d="M318.64,42.27h50.52v5.61h5.61v-5.61h18.24v5.61h28.07v5.61h-5.61v5.61h-4.21c-13.62-4.81-27.65-7.85-42.1-9.12-17.3-.87-34.61-1.57-51.92-2.1-.38-2.24,.09-4.11,1.4-5.61Z"/>
  <path class="cls-88" d="M450.55,59.11h-16.84v-5.61h-7.02v-5.61h11.23v5.61h12.63v5.61Z"/>
  <path class="cls-88" d="M421.08,53.49h12.63v5.61h-18.24v-5.61h5.61Z"/>
  <path class="cls-88" d="M63.25,59.11v5.61h-11.23v-4.21c3.74-.47,7.48-.94,11.23-1.4Z"/>
  <path class="cls-62" d="M411.26,59.11h22.45c-1.03,1.7-1.5,3.57-1.4,5.61h23.86v5.61h16.84v5.61h7.02c-1.03,1.7-1.5,3.57-1.4,5.61h-5.61v5.61h-4.21c.24-1.86-.23-3.49-1.4-4.91-5.59-.7-11.21-.93-16.84-.7v-4.21c-4.37-.81-8.58-.81-12.63,0-8.21-7.14-17.1-13.22-26.66-18.24Z"/>
  <path class="cls-43" d="M433.71,59.11h39.29v5.61h11.23v5.61h7.02c.94,1.87,1.87,3.74,2.81,5.61-2.85,.77-4.25,2.64-4.21,5.61h-4.21c.47-4.21-1.4-6.08-5.61-5.61h-7.02v-5.61h-16.84v-5.61h-23.86c-.09-2.05,.37-3.92,1.4-5.61Z"/>
  <path class="cls-32" d="M473,59.11h9.82c3.47,3.19,6.28,6.93,8.42,11.23h-7.02v-5.61h-11.23v-5.61Z"/>
  <path class="cls-72" d="M52.02,64.72v5.61c-5.57,.93-11.18,1.4-16.84,1.4,.16,4.79-2.18,6.66-7.02,5.61v4.21c-2.9,.02-5.7,.49-8.42,1.4,1.16-4.19,3.03-7.93,5.61-11.23,2.84,.23,5.65,0,8.42-.7,1.17-1.42,1.64-3.06,1.4-4.91,5.64-.2,11.25-.67,16.84-1.4Z"/>
  <path class="cls-52" d="M85.7,71.74c-4.21,3.27-7.95,7.02-11.23,11.23h-5.61v5.61h-5.61v4.21c-2.24-.38-4.11,.09-5.61,1.4v5.61h-11.23v-5.61H28.17c1.5-1.31,3.37-1.78,5.61-1.4v-4.21c6.13,.05,12.21-.42,18.24-1.4v-4.21c1.5-1.31,3.37-1.78,5.61-1.4v-5.61h18.24v-4.21c3.52-1.29,6.79-1.29,9.82,0Z"/>
  <path class="cls-65" d="M478.61,81.56v7.02h18.24v11.23h7.02c.94,3.74,1.87,7.48,2.81,11.23h-22.45v-11.23h-11.23v-11.23h-26.66c-3.35-3.35-6.15-7.09-8.42-11.23,4.05-.81,8.26-.81,12.63,0v4.21c5.63-.23,11.25,0,16.84,.7,1.17,1.42,1.64,3.06,1.4,4.91h4.21v-5.61h5.61Z"/>
  <path class="cls-44" d="M480.02,75.95c4.21-.47,6.08,1.4,5.61,5.61h4.21c-.04-2.97,1.36-4.84,4.21-5.61,3.66,7.79,6.94,15.74,9.82,23.86h-7.02v-11.23h-18.24v-7.02c-.09-2.05,.37-3.92,1.4-5.61Z"/>
  <path class="cls-65" d="M52.02,82.96v4.21c-6.03,.98-12.11,1.45-18.24,1.4v4.21c-2.24-.38-4.11,.09-5.61,1.4H15.54c-.09-2.05,.37-3.92,1.4-5.61,4.84,1.04,7.18-.83,7.02-5.61h28.07Z"/>
  <path class="cls-19" d="M74.47,82.96c-2.82,3.8-5.63,7.54-8.42,11.23h-8.42c1.5-1.31,3.37-1.78,5.61-1.4v-4.21h5.61v-5.61h5.61Z"/>
  <path class="cls-34" d="M398.63,88.58v5.61h5.61v5.61h11.23v5.61h-16.84v-5.61h-5.61v-5.61h-7.02v5.61h-11.23v-4.21c6.87-5.4,14.82-7.74,23.86-7.02Z"/>
  <path class="cls-5" d="M398.63,88.58c10.36,1.95,17.84,7.57,22.45,16.84h-5.61v-5.61h-11.23v-5.61h-5.61v-5.61Z"/>
  <path class="cls-55" d="M446.34,88.58h26.66v11.23h11.23v5.61h-11.23v5.61h-15.44c-3-7.88-6.74-15.36-11.23-22.45Z"/>
  <path class="cls-88" d="M15.54,94.19h7.02v5.61H12.73c.69-2.1,1.62-3.97,2.81-5.61Z"/>
  <path class="cls-59" d="M22.55,94.19h23.86v11.23h-12.63v5.61H11.33c.48,2.78-.45,4.65-2.81,5.61l4.21-16.84h9.82v-5.61Z"/>
  <path class="cls-49" d="M404.24,105.42v5.61h16.84c-.33-1.81,.13-3.21,1.4-4.21,3.64,8.44,3.64,16.86,0,25.26-1.87-1.87-4.21-3.04-7.02-3.51-9.34-.7-18.7-.93-28.07-.7v-4.21h-5.61v4.21h-18.24c-1.8-7.82-.87-15.31,2.81-22.45h14.03v-5.61h5.61v-5.61h7.02v5.61h5.61v5.61h5.61Z"/>
  <path class="cls-37" d="M374.77,95.59v4.21h5.61v5.61h-14.03c1.8-4.14,4.6-7.41,8.42-9.82Z"/>
  <path class="cls-22" d="M57.64,94.19h8.42c-1.16,4.19-3.03,7.93-5.61,11.23h-14.03v-5.61h11.23v-5.61Z"/>
  <path class="cls-88" d="M40.8,105.42v5.61h-7.02v-5.61h7.02Z"/>
  <path class="cls-48" d="M40.8,105.42h19.65c.09,2.05-.37,3.92-1.4,5.61-6.13-.05-12.21,.42-18.24,1.4v4.21c-4.84-1.04-7.18,.83-7.02,5.61-4.21-.47-6.08,1.4-5.61,5.61-3.31-.23-6.58,0-9.82,.7-1.17,1.42-1.64,3.06-1.4,4.91-3.74,.47-7.48,.94-11.23,1.4,.69-4.43,1.62-8.64,2.81-12.63,2.47,.64,5.27,.64,8.42,0v-5.61h11.23c-.09-2.05,.37-3.92,1.4-5.61h11.23v-5.61Z"/>
  <path class="cls-88" d="M404.24,105.42h16.84c.94,0,1.4,.47,1.4,1.4-1.27,.99-1.74,2.4-1.4,4.21h-16.84v-5.61Z"/>
  <path class="cls-62" d="M484.23,105.42v5.61h12.63c1.5,1.31,3.37,1.78,5.61,1.4v4.21h5.61c1.72,9.74,2.66,19.56,2.81,29.47h-19.65v-5.61h-11.23c-1.03-1.7-1.5-3.57-1.4-5.61h-5.61v-11.23h-5.61v5.61h-5.61c-1.18-6.14-2.59-12.22-4.21-18.24h15.44v-5.61h11.23Z"/>
  <path class="cls-88" d="M29.57,111.03c-1.03,1.7-1.5,3.57-1.4,5.61h-11.23v5.61c-3.14,.64-5.95,.64-8.42,0v-5.61c2.35-.96,3.29-2.83,2.81-5.61H29.57Z"/>
  <path class="cls-59" d="M59.04,111.03c-1.62,6.02-3.03,12.11-4.21,18.24-2.17,.45-3.11,1.85-2.81,4.21h-5.61v-4.21h-5.61c.09,2.05-.37,3.92-1.4,5.61H16.94v5.61h-5.61v5.61H5.71v-11.23c3.74-.47,7.48-.94,11.23-1.4-.24-1.86,.23-3.49,1.4-4.91,3.24-.7,6.52-.93,9.82-.7-.47-4.21,1.4-6.08,5.61-5.61-.16-4.79,2.18-6.66,7.02-5.61v-4.21c6.03-.98,12.11-1.45,18.24-1.4Z"/>
  <path class="cls-4" d="M496.85,111.03h9.82c.47,1.87,.94,3.74,1.4,5.61h-5.61v-4.21c-2.24,.38-4.11-.09-5.61-1.4Z"/>
  <path class="cls-56" d="M422.48,132.08c-1.18,3.3-3.05,6.11-5.61,8.42-1.31-1.5-1.78-3.37-1.4-5.61-9.16-.57-18.52-.8-28.07-.7-1.17-1.42-1.64-3.06-1.4-4.91-5.43,.44-10.58-.03-15.44-1.4h11.23v-4.21h5.61v4.21c9.37-.23,18.72,0,28.07,.7,2.81,.47,5.15,1.64,7.02,3.51Z"/>
  <path class="cls-63" d="M480.02,140.5c-5.68,.15-11.29-.32-16.84-1.4-.24-3.31-.71-6.59-1.4-9.82h5.61v-5.61h5.61v11.23h5.61c-.09,2.05,.37,3.92,1.4,5.61Z"/>
  <path class="cls-27" d="M259.7,125.06v9.82h-23.86v5.61h-4.21v-5.61h-7.02v5.61h-4.21v-5.61c-4.05,.43-7.79-.04-11.23-1.4,16.19-6.44,33.03-9.25,50.52-8.42Z"/>
  <path class="cls-35" d="M259.7,125.06c16.53-.52,32.43,2.29,47.71,8.42-3.91,1.37-8.12,1.84-12.63,1.4-11.57-.54-23.26-.54-35.08,0v-9.82Z"/>
  <path class="cls-28" d="M363.55,127.87h7.02c4.86,1.38,10,1.85,15.44,1.4-.24,1.86,.23,3.49,1.4,4.91,9.55-.1,18.9,.13,28.07,.7-.38,2.24,.09,4.11,1.4,5.61-16.37,15.13-32.51,14.67-48.41-1.4-2.04-3.61-3.68-7.35-4.91-11.23Z"/>
  <path class="cls-88" d="M46.41,133.48c-1.99,1.33-4.33,1.8-7.02,1.4,1.03-1.7,1.5-3.57,1.4-5.61h5.61v4.21Z"/>
  <path class="cls-49" d="M54.83,129.27c-1.16,7.45-2.1,14.93-2.81,22.45h-18.24v5.61H16.94v5.61c-3.74,.47-7.48,.94-11.23,1.4,.33,1.81-.13,3.21-1.4,4.21-.44-5.9,.02-11.51,1.4-16.84h11.23v-5.61h5.61v-5.61h11.23v-5.61h5.61c2.69,.4,5.03-.07,7.02-1.4h5.61c-.3-2.36,.63-3.76,2.81-4.21Z"/>
  <path class="cls-64" d="M209.19,133.48c3.44,1.37,7.18,1.83,11.23,1.4v5.61h4.21v-5.61h7.02v5.61h4.21v-5.61h12.63v5.61h-11.23v5.61c-1.31,1.5-1.78,3.37-1.4,5.61h-16.84v-5.61h-5.61v5.61h-22.45v5.61h-12.63v-5.61c9.31-7.47,19.6-13.56,30.87-18.24Z"/>
  <path class="cls-88" d="M33.78,134.88v5.61h-11.23v5.61h-5.61v5.61H5.71v-5.61h5.61v-5.61h5.61v-5.61h16.84Z"/>
  <path class="cls-88" d="M294.79,134.88v5.61c-5.99,.42-11.84-.05-17.54-1.4-.69,1.81-.92,3.69-.7,5.61h-4.21c.24-1.86-.23-3.49-1.4-4.91-5.65-.7-11.26-.46-16.84,.7v5.61h-16.84v-5.61h11.23v-5.61h11.23c11.82-.54,23.51-.54,35.08,0Z"/>
  <path class="cls-88" d="M307.41,133.48c3.74,1.87,7.48,3.74,11.23,5.61-7.66,.1-15.61,.57-23.86,1.4v-5.61c4.51,.44,8.72-.03,12.63-1.4Z"/>
  <path class="cls-55" d="M294.79,140.5c8.24-.83,16.19-1.3,23.86-1.4,1.7,.61,3.1,1.54,4.21,2.81v4.21h7.02c4.84,2.66,9.51,5.7,14.03,9.12,2.63,2.39,4.97,4.96,7.02,7.72h-4.21v5.61h-1.4v-4.21h-9.82v4.21h-18.24v-5.61h-22.45v-5.61h-29.47v-5.61h-11.23v-11.23c5.58-1.17,11.19-1.4,16.84-.7,1.17,1.42,1.64,3.06,1.4,4.91h4.21c-.22-1.93,.01-3.8,.7-5.61,5.71,1.35,11.55,1.82,17.54,1.4Z"/>
  <path class="cls-62" d="M463.18,139.09c5.55,1.08,11.16,1.55,16.84,1.4h11.23v5.61h11.23v5.61h8.42c1.39,11.44,1.86,23.13,1.4,35.08h-15.44c.4-2.69-.07-5.03-1.4-7.02v-4.21c-3.74-.47-7.48-.94-11.23-1.4v-5.61h-11.23v-11.23h-8.42c.05-6.13-.42-12.21-1.4-18.24Z"/>
  <path class="cls-88" d="M485.63,140.5h5.61v5.61h-5.61v-5.61Z"/>
  <path class="cls-42" d="M322.85,141.9c3.05,.35,5.39,1.75,7.02,4.21h-7.02v-4.21Z"/>
  <path class="cls-88" d="M224.62,151.72v5.61h-11.23v-11.23h5.61v5.61h5.61Z"/>
  <path class="cls-88" d="M237.25,146.11h16.84v5.61h-11.23c.38,2.24-.09,4.11-1.4,5.61h-5.61v-5.61c-.38-2.24,.09-4.11,1.4-5.61Z"/>
  <path class="cls-88" d="M502.47,146.11h8.42v5.61h-8.42v-5.61Z"/>
  <path class="cls-53" d="M52.02,151.72v16.84h-7.02c-3.31,.24-6.59,.71-9.82,1.4v4.21c-2.69-.4-5.03,.07-7.02,1.4H11.33v5.61H5.71c.33,1.81-.13,3.21-1.4,4.21v-9.82c2.16-1.12,4.5-1.59,7.02-1.4v-5.61h5.61c-.47-4.21,1.4-6.08,5.61-5.61v-5.61h11.23v-5.61h18.24Z"/>
  <path class="cls-20" d="M178.32,151.72v11.23c-3.31-.23-6.58,0-9.82,.7-1.17,1.42-1.64,3.06-1.4,4.91h-7.02c5.2-6.61,11.28-12.22,18.24-16.84Z"/>
  <path class="cls-88" d="M202.17,151.72v5.61h-11.23v-5.61h11.23Z"/>
  <path class="cls-43" d="M202.17,151.72h11.23v5.61h11.23v-5.61h11.23v5.61h5.61v5.61h-22.45v11.23h11.23c-.37-4.54,1.74-6.41,6.31-5.61,3.68-.63,5.79,.77,6.31,4.21-3.6,1.37-7.34,2.3-11.23,2.81h-18.24v4.21h-16.84c-15.56,.42-31,.89-46.31,1.4,2.78-4.64,6.06-8.85,9.82-12.63h7.02c-.24-1.86,.23-3.49,1.4-4.91,3.24-.7,6.52-.93,9.82-.7v-5.61h23.86v-5.61Z"/>
  <path class="cls-46" d="M254.09,151.72v5.61h40.69v5.61c-4.84-1.04-7.18,.83-7.02,5.61h-4.21c.37-4.54-1.74-6.41-6.31-5.61-4.58-.8-6.68,1.07-6.31,5.61-2.24-.38-4.11,.09-5.61,1.4-5.57-.93-11.18-1.4-16.84-1.4v4.21h-5.61c-.52-3.44-2.63-4.84-6.31-4.21-4.58-.8-6.68,1.07-6.31,5.61h-11.23v-11.23h22.45v-5.61c1.31-1.5,1.78-3.37,1.4-5.61h11.23Z"/>
  <path class="cls-88" d="M254.09,151.72h11.23v5.61h-11.23v-5.61Z"/>
  <path class="cls-62" d="M22.55,157.34v5.61c-4.21-.47-6.08,1.4-5.61,5.61h-5.61v5.61c-2.51-.19-4.85,.28-7.02,1.4v-7.02c1.27-.99,1.74-2.4,1.4-4.21,3.74-.47,7.48-.94,11.23-1.4v-5.61h5.61Z"/>
  <path class="cls-73" d="M464.58,157.34h8.42v11.23h11.23v5.61c3.74,.47,7.48,.94,11.23,1.4v4.21h-4.21v5.61c-6.06,1.65-12.14,1.65-18.24,0v-4.21c4.18-.65,8.39-1.12,12.63-1.4v-4.21h-19.65c-1.38-5.8-1.85-11.88-1.4-18.24Z"/>
  <path class="cls-70" d="M294.79,162.95v5.61h5.61v-4.21h5.61v4.21h40.69v5.61h5.61v-4.21c1.81,.33,3.21-.13,4.21-1.4,.94,0,1.4,.47,1.4,1.4v9.82c2.24,.38,4.11-.09,5.61-1.4,6.53,7.43,11.68,15.85,15.44,25.26h-9.82v-5.61h-16.84v-5.61h-23.86v5.61h-8.42c-15.43-14.5-33.67-23.39-54.73-26.66v-1.4c1.5-1.31,3.37-1.78,5.61-1.4-.37-4.54,1.74-6.41,6.31-5.61,4.58-.8,6.68,1.07,6.31,5.61h4.21c-.16-4.79,2.18-6.66,7.02-5.61Z"/>
  <path class="cls-88" d="M294.79,162.95h22.45v5.61h-11.23v-4.21h-5.61v4.21h-5.61v-5.61Z"/>
  <path class="cls-31" d="M350.92,162.95c2.34,1.4,4.21,3.27,5.61,5.61-.99,1.27-2.4,1.74-4.21,1.4v4.21h-5.61v-11.23h4.21Z"/>
  <path class="cls-88" d="M345.3,168.56h-9.82v-4.21h9.82v4.21Z"/>
  <path class="cls-88" d="M45.01,168.56v5.61h-9.82v-4.21c3.24-.69,6.51-1.16,9.82-1.4Z"/>
  <path class="cls-56" d="M45.01,168.56h7.02c-.11,3.8-.57,7.54-1.4,11.23-3.24,.69-6.51,1.16-9.82,1.4v4.21c-2.24-.38-4.11,.09-5.61,1.4-1.27,.99-1.74,2.4-1.4,4.21h-4.21c.16-4.79-2.18-6.66-7.02-5.61v-4.21h-4.21c2.96-1.36,6.23-1.83,9.82-1.4v-4.21c1.99-1.33,4.33-1.8,7.02-1.4h9.82v-5.61Z"/>
  <path class="cls-40" d="M265.32,169.97v1.4c-5.75-.37-11.37,.1-16.84,1.4v-4.21c5.66,0,11.27,.47,16.84,1.4Z"/>
  <path class="cls-13" d="M357.93,169.97c2.41,2.42,4.28,5.22,5.61,8.42-1.5,1.31-3.37,1.78-5.61,1.4v-9.82Z"/>
  <path class="cls-88" d="M219.01,175.58v4.21h-5.61v-4.21h5.61Z"/>
  <path class="cls-86" d="M219.01,175.58h12.63c-13.14,5.18-24.83,12.66-35.08,22.45h-40.69v-5.61c3.74-.47,7.48-.94,11.23-1.4v-4.21c9.84-.11,19.67-.58,29.47-1.4v-5.61h22.45v-4.21Z"/>
  <path class="cls-54" d="M465.98,175.58h19.65v4.21c-4.24,.29-8.44,.75-12.63,1.4v4.21c6.1,1.65,12.18,1.65,18.24,0v-5.61h4.21c1.33,1.99,1.8,4.33,1.4,7.02v5.61c5.17-1.65,10.31-1.65,15.44,0,.41,13.57,.87,27.13,1.4,40.69h-5.61v-5.61h-5.61v-7.02h-5.61v-5.61h-12.63v-5.61h-5.61v-5.61h-5.61v-5.61h-7.02v-22.45Z"/>
  <path class="cls-88" d="M50.62,179.79v5.61c-2.05-.09-3.92,.37-5.61,1.4h-9.82c1.5-1.31,3.37-1.78,5.61-1.4v-4.21c3.31-.24,6.59-.71,9.82-1.4Z"/>
  <path class="cls-52" d="M196.56,179.79v5.61c-9.8,.83-19.62,1.29-29.47,1.4v4.21c-3.74,.47-7.48,.94-11.23,1.4v5.61h-15.44c2.59-6.12,5.86-11.74,9.82-16.84,15.31-.51,30.75-.98,46.31-1.4Z"/>
  <path class="cls-88" d="M28.17,175.58v4.21c-3.59-.42-6.87,.04-9.82,1.4-1.27,.99-1.74,2.4-1.4,4.21-3.74,.47-7.48,.94-11.23,1.4,.38,2.24-.09,4.11-1.4,5.61v-7.02c1.27-.99,1.74-2.4,1.4-4.21h5.61v-5.61H28.17Z"/>
  <path class="cls-66" d="M50.62,185.4v12.63h-9.82v5.61h-7.02v5.61h-11.23c-4.21-.47-6.08,1.4-5.61,5.61H5.71c.48,2.78-.45,4.65-2.81,5.61,.11-3.8,.57-7.54,1.4-11.23h7.02v-5.61h5.61v-5.61h11.23v-5.61c1.27,.99,1.74,2.4,1.4,4.21h9.82v-4.21h5.61v-5.61c1.7-1.03,3.57-1.5,5.61-1.4Z"/>
  <path class="cls-88" d="M18.34,181.19h4.21v4.21c4.84-1.04,7.18,.83,7.02,5.61-.94,0-1.4,.47-1.4,1.4h-11.23v5.61h-5.61v5.61H4.31v-11.23c1.31-1.5,1.78-3.37,1.4-5.61,3.74-.47,7.48-.94,11.23-1.4-.33-1.81,.13-3.21,1.4-4.21Z"/>
  <path class="cls-88" d="M35.18,186.8h9.82v5.61h-5.61v4.21h-9.82c.33-1.81-.13-3.21-1.4-4.21,0-.94,.47-1.4,1.4-1.4h4.21c-.33-1.81,.13-3.21,1.4-4.21Z"/>
  <path class="cls-88" d="M496.85,186.8h15.44v5.61c-5.12-1.65-10.27-1.65-15.44,0v-5.61Z"/>
  <path class="cls-88" d="M28.17,192.42v5.61h-11.23v-5.61h11.23Z"/>
  <path class="cls-88" d="M369.16,203.64h-22.45v-5.61h-5.61v5.61h-7.02v-5.61h-5.61v-5.61h23.86v5.61h16.84v5.61Z"/>
  <path class="cls-88" d="M16.94,198.03v5.61h-5.61v-5.61h5.61Z"/>
  <path class="cls-74" d="M50.62,198.03v5.61h-9.82v-5.61h9.82Z"/>
  <path class="cls-55" d="M140.43,198.03h9.82v5.61h-5.61v5.61h-5.61c.33-1.81-.13-3.21-1.4-4.21,.55-2.5,1.49-4.84,2.81-7.02Z"/>
  <path class="cls-48" d="M150.25,198.03h46.31c-2.31,4.17-5.12,7.91-8.42,11.23h-32.27v-5.61h-5.61v-5.61Z"/>
  <path class="cls-52" d="M320.04,198.03h14.03v5.61h7.02v-5.61h5.61v5.61h22.45c-.3,2.31,.17,4.41,1.4,6.31,3.56,1.12,6.84,.88,9.82-.7,5.95,12.74,8.76,26.3,8.42,40.69-2.35-.96-3.29-2.83-2.81-5.61-3.74-.47-7.48-.94-11.23-1.4v-4.21c-3.74-.47-7.48-.94-11.23-1.4v-4.21c-3.74-.47-7.48-.94-11.23-1.4v-4.21c-1.5-1.31-3.37-1.78-5.61-1.4v-9.82h-5.61c.38,2.24-.09,4.11-1.4,5.61-1.4-1.87-2.81-1.87-4.21,0-4.55-8.3-9.69-16.25-15.44-23.86Z"/>
  <path class="cls-62" d="M465.98,198.03h7.02v5.61h5.61v5.61h5.61v5.61h12.63v5.61h5.61v7.02h5.61v5.61h5.61v11.23h-16.84c.23-3.77,0-7.51-.7-11.23-1.42-1.17-3.06-1.64-4.91-1.4v5.61h-5.61v-5.61h-12.63v-11.23h-7.02v-22.45Z"/>
  <path class="cls-88" d="M4.31,203.64h7.02v5.61H4.31v-5.61Z"/>
  <path class="cls-51" d="M40.8,203.64h9.82v5.61h-4.21v11.23c-5.68-.15-11.29,.32-16.84,1.4v4.21H5.71v-4.21c3.74-.47,7.48-.94,11.23-1.4v-5.61h5.61v-5.61h11.23v-5.61h7.02Z"/>
  <path class="cls-86" d="M150.25,203.64h5.61v5.61h-5.61v5.61h-16.84c1.07-3.53,2.48-6.81,4.21-9.82,1.27,.99,1.74,2.4,1.4,4.21h5.61v-5.61h5.61Z"/>
  <path class="cls-67" d="M369.16,203.64h9.82c1.03,1.7,1.5,3.57,1.4,5.61-2.99,1.58-6.26,1.82-9.82,.7-1.23-1.9-1.7-4.01-1.4-6.31Z"/>
  <path class="cls-88" d="M22.55,209.26v5.61h-5.61c-.47-4.21,1.4-6.08,5.61-5.61Z"/>
  <path class="cls-25" d="M50.62,209.26v11.23h-4.21v-11.23h4.21Z"/>
  <path class="cls-88" d="M155.86,209.26h32.27c-1.07,2.62-2.47,4.96-4.21,7.02-4.88-1.6-10.02-1.84-15.44-.7-1.17,1.42-1.64,3.06-1.4,4.91h-5.61v-5.61h-11.23v-5.61h5.61Z"/>
  <path class="cls-24" d="M16.94,214.87v5.61c-3.74,.47-7.48,.94-11.23,1.4v4.21H2.91v-5.61c2.35-.96,3.29-2.83,2.81-5.61h11.23Z"/>
  <path class="cls-71" d="M133.41,214.87h11.23v5.61h-12.63c.47-1.87,.94-3.74,1.4-5.61Z"/>
  <path class="cls-77" d="M144.64,214.87h16.84v5.61h5.61c-.24-1.86,.23-3.49,1.4-4.91,5.41-1.14,10.56-.9,15.44,.7-1.4,3.74-2.81,7.48-4.21,11.23h-46.31v4.21h-4.21c.5-3.88,1.44-7.62,2.81-11.23h12.63v-5.61Z"/>
  <path class="cls-88" d="M346.71,226.1h-7.02v-4.21c1.31-1.5,1.78-3.37,1.4-5.61h5.61v9.82Z"/>
  <path class="cls-47" d="M46.41,220.48h4.21v5.61h-4.21v5.61h-11.23c.47-4.21-1.4-6.08-5.61-5.61v-4.21c5.55-1.08,11.16-1.55,16.84-1.4Z"/>
  <path class="cls-78" d="M465.98,220.48h7.02v11.23h12.63v5.61h5.61v-5.61c1.86-.24,3.49,.23,4.91,1.4,.7,3.71,.93,7.46,.7,11.23h16.84v22.45h-5.61v-4.21c-3.74-.47-7.48-.94-11.23-1.4-.47-3.74-.94-7.48-1.4-11.23h-11.23v-5.61h-11.23v-11.23h-5.61c.38-2.24-.09-4.11-1.4-5.61v-7.02Z"/>
  <path class="cls-88" d="M2.91,226.1H22.55v1.4H11.33v4.21c-2.9,.02-5.7,.49-8.42,1.4v-7.02Z"/>
  <path class="cls-56" d="M29.57,226.1c4.21-.47,6.08,1.4,5.61,5.61h9.82c-4.86,1.38-10,1.85-15.44,1.4,.16,4.79-2.18,6.66-7.02,5.61v4.21c-5.57,.93-11.18,1.4-16.84,1.4,.48,2.78-.45,4.65-2.81,5.61v-7.02c2.17-.45,3.11-1.85,2.81-4.21h5.61v-5.61h5.61v-5.61h5.61v4.21h5.61c-.09-2.05,.37-3.92,1.4-5.61Z"/>
  <path class="cls-25" d="M50.62,226.1v5.61h-4.21v-5.61h4.21Z"/>
  <path class="cls-12" d="M339.69,221.89v4.21h7.02c2.24-.38,4.11,.09,5.61,1.4h-5.61v4.21c-2.69-.4-5.03,.07-7.02,1.4-1.92-3.42-3.33-7.16-4.21-11.23,1.4-1.87,2.81-1.87,4.21,0Z"/>
  <path class="cls-36" d="M16.94,227.5v5.61h-5.61v5.61H5.71c.3,2.36-.63,3.76-2.81,4.21v-9.82c2.72-.91,5.52-1.38,8.42-1.4v-4.21h5.61Z"/>
  <path class="cls-88" d="M22.55,226.1h7.02c-1.03,1.7-1.5,3.57-1.4,5.61h-5.61v-5.61Z"/>
  <path class="cls-55" d="M179.72,227.5c-.69,2.1-1.62,3.97-2.81,5.61h-4.21v4.21h-5.61v-4.21h-5.61v5.61h-12.63c-.99-1.27-2.4-1.74-4.21-1.4,.24-1.86-.23-3.49-1.4-4.91-3.24-.7-6.52-.93-9.82-.7v-4.21h46.31Z"/>
  <path class="cls-43" d="M352.32,227.5v4.21c3.74,.47,7.48,.94,11.23,1.4v4.21c3.74,.47,7.48,.94,11.23,1.4v4.21c3.74,.47,7.48,.94,11.23,1.4-.48,2.78,.45,4.65,2.81,5.61v23.86c-2.27-.75-4.61-1.22-7.02-1.4v-5.61h-7.02v-5.61h-5.61v-5.61h-11.23v-5.61h-15.44c-1.24-5.55-2.17-11.16-2.81-16.84,1.99-1.33,4.33-1.8,7.02-1.4v-4.21h5.61Z"/>
  <path class="cls-88" d="M363.55,227.5h5.61v5.61c-4.21,.47-6.08-1.4-5.61-5.61Z"/>
  <path class="cls-49" d="M465.98,227.5c1.31,1.5,1.78,3.37,1.4,5.61h5.61v11.23h11.23v5.61h11.23c.47,3.74,.94,7.48,1.4,11.23,3.74,.47,7.48,.94,11.23,1.4v4.21h5.61c-.17,17.32-.64,34.62-1.4,51.92h-4.21v-11.23h-12.63c.47-3.74,.94-7.48,1.4-11.23h-12.63v-5.61h-5.61v-5.61h-5.61v-5.61h-5.61c.38-2.24-.09-4.11-1.4-5.61v-46.31Z"/>
  <path class="cls-54" d="M45.01,231.71h5.61v1.4h-4.21v9.82c-3.77-.23-7.51,0-11.23,.7-1.17,1.42-1.64,3.06-1.4,4.91h-4.21v-4.21h-7.02v5.61H11.33v5.61H2.91v-5.61c2.35-.96,3.29-2.83,2.81-5.61,5.66,0,11.27-.47,16.84-1.4v-4.21c4.84,1.04,7.18-.83,7.02-5.61,5.43,.44,10.58-.03,15.44-1.4Z"/>
  <path class="cls-74" d="M129.2,231.71h4.21c3.31-.23,6.58,0,9.82,.7,1.17,1.42,1.64,3.06,1.4,4.91,1.81-.33,3.21,.13,4.21,1.4h-4.21c.09,2.05-.37,3.92-1.4,5.61h-15.44c.01-4.27,.48-8.48,1.4-12.63Z"/>
  <path class="cls-60" d="M50.62,233.11v11.23h-9.82c.09,2.05-.37,3.92-1.4,5.61H22.55v-5.61h7.02v4.21h4.21c-.24-1.86,.23-3.49,1.4-4.91,3.71-.7,7.46-.93,11.23-.7v-9.82h4.21Z"/>
  <path class="cls-75" d="M176.91,233.11c.38,2.24-.09,4.11-1.4,5.61-2.17,.45-3.11,1.85-2.81,4.21h-4.21v-4.21h-7.02v-5.61h5.61v4.21h5.61v-4.21h4.21Z"/>
  <path class="cls-68" d="M148.85,238.72h19.65v4.21h4.21c-.3-2.36,.63-3.76,2.81-4.21,.14,3.84-.33,7.58-1.4,11.23-1.31-1.5-1.78-3.37-1.4-5.61h-11.23v5.61h-5.61v-5.61h-12.63c1.03-1.7,1.5-3.57,1.4-5.61h4.21Z"/>
  <path class="cls-48" d="M50.62,244.34v5.61h-4.21v5.61h-5.61c.38-2.24-.09-4.11-1.4-5.61,1.03-1.7,1.5-3.57,1.4-5.61h9.82Z"/>
  <path class="cls-57" d="M127.8,244.34h5.61c.09,2.05-.37,3.92-1.4,5.61h-4.21v-5.61Z"/>
  <path class="cls-84" d="M133.41,244.34h22.45v5.61h5.61v-5.61h11.23c-.38,2.24,.09,4.11,1.4,5.61v11.23h-7.02v-5.61h-33.68c.38-2.24-.09-4.11-1.4-5.61,1.03-1.7,1.5-3.57,1.4-5.61Z"/>
  <path class="cls-88" d="M22.55,249.95h11.23v5.61H11.33v-5.61h11.23Z"/>
  <path class="cls-68" d="M33.78,249.95h5.61c1.31,1.5,1.78,3.37,1.4,5.61h-5.61v5.61c-4.84-1.04-7.18,.83-7.02,5.61-3.31-.23-6.58,0-9.82,.7-1.17,1.42-1.64,3.06-1.4,4.91H2.91v-11.23H11.33v-5.61h22.45v-5.61Z"/>
  <path class="cls-88" d="M127.8,249.95h4.21c1.31,1.5,1.78,3.37,1.4,5.61h33.68v5.61h-39.29v-11.23Z"/>
  <path class="cls-57" d="M342.5,249.95h15.44v5.61h11.23v5.61h5.61v5.61c.09,5.48,.56,11.09,1.4,16.84h4.21c-.43-4.05,.04-7.79,1.4-11.23,2.41,.18,4.75,.65,7.02,1.4-1.1,5.68-2.51,11.29-4.21,16.84-2.35-.96-3.29-2.83-2.81-5.61h-7.02c-3.74-.47-7.48-.94-11.23-1.4v-4.21h-5.61v-5.61c-5.57-.93-11.18-1.4-16.84-1.4,.84-7.46,1.31-14.94,1.4-22.45Z"/>
  <path class="cls-88" d="M352.32,249.95h5.61v5.61h-5.61v-5.61Z"/>
  <path class="cls-88" d="M2.91,255.56H11.33v5.61H2.91v-5.61Z"/>
  <path class="cls-49" d="M50.62,249.95v11.23h-15.44v-5.61h11.23v-5.61h4.21Z"/>
  <path class="cls-88" d="M480.02,255.56h5.61v5.61h-5.61v-5.61Z"/>
  <path class="cls-88" d="M35.18,261.18v5.61h-7.02c-.16-4.79,2.18-6.66,7.02-5.61Z"/>
  <path class="cls-64" d="M35.18,261.18h15.44v11.23H22.55v-4.21c2.24,.38,4.11-.09,5.61-1.4h7.02v-5.61Z"/>
  <path class="cls-85" d="M127.8,261.18h16.84v5.61h-16.84v-5.61Z"/>
  <path class="cls-61" d="M144.64,261.18h29.47c1.07,3.64,1.54,7.39,1.4,11.23-15.88,1.42-31.78,1.42-47.71,0v-5.61h16.84v-5.61Z"/>
  <path class="cls-88" d="M28.17,266.79c-1.5,1.31-3.37,1.78-5.61,1.4v4.21h-5.61c-.24-1.86,.23-3.49,1.4-4.91,3.24-.7,6.52-.93,9.82-.7Z"/>
  <path class="cls-88" d="M374.77,266.79h7.02v5.61c-1.37,3.44-1.83,7.18-1.4,11.23h-4.21c-.85-5.75-1.31-11.36-1.4-16.84Z"/>
  <path class="cls-74" d="M5.71,272.4H50.62v1.4h-9.82v4.21c-4.23,.29-8.44,.75-12.63,1.4h-5.61v4.21c-5.57,.93-11.18,1.4-16.84,1.4,.48,2.78-.45,4.65-2.81,5.61v-12.63c2.35-.96,3.29-2.83,2.81-5.61Z"/>
  <path class="cls-80" d="M127.8,273.81v-1.4c15.93,1.42,31.84,1.42,47.71,0,1.39,3.62,2.79,7.36,4.21,11.23h-7.02v-4.21c-9.3-1.17-18.66-1.63-28.07-1.4v-4.21h-16.84Z"/>
  <path class="cls-58" d="M341.09,272.4c1.5,1.31,3.37,1.78,5.61,1.4v4.21h11.23v5.61h5.61c3.74,.47,7.48,.94,11.23,1.4v5.61h5.61c.47,2.81,.94,5.61,1.4,8.42-2.04,6.88-4.84,13.43-8.42,19.65-3.48-2.69-4.88-6.43-4.21-11.23h-11.23v-5.61h-5.61v-5.61h-5.61c-4.84,1.04-7.18-.83-7.02-5.61-1.81,.33-3.21-.13-4.21-1.4,1.63-5.84,3.5-11.45,5.61-16.84Z"/>
  <path class="cls-88" d="M341.09,272.4c5.66,0,11.27,.47,16.84,1.4v4.21h-11.23v-4.21c-2.24,.38-4.11-.09-5.61-1.4Z"/>
  <path class="cls-41" d="M2.91,272.4h2.81c.48,2.78-.45,4.65-2.81,5.61v-5.61Z"/>
  <path class="cls-54" d="M50.62,273.81v15.44c-5.55,1.08-11.16,1.55-16.84,1.4h-15.44c.99-1.27,2.4-1.74,4.21-1.4v-4.21h5.61v-5.61c4.19-.65,8.39-1.12,12.63-1.4v-4.21h9.82Z"/>
  <path class="cls-58" d="M127.8,273.81h16.84v4.21c9.4-.23,18.76,.24,28.07,1.4v4.21h7.02c.47,1.87,.94,3.74,1.4,5.61-8.25,.7-16.67,1.16-25.26,1.4h-11.23v-5.61h-11.23c.33,1.81-.13,3.21-1.4,4.21-1.84-4.91-3.25-10.05-4.21-15.44Z"/>
  <path class="cls-66" d="M465.98,273.81c1.31,1.5,1.78,3.37,1.4,5.61h5.61v16.84h12.63v11.23h11.23v5.61h5.61v5.61h9.82c.21,17.33-.26,34.64-1.4,51.92-2.62-3-3.56-6.74-2.81-11.23h-5.61v-5.61h-5.61v-11.23h-5.61v-5.61c-4.84,1.04-7.18-.83-7.02-5.61-3.69-.83-7.43-1.3-11.23-1.4v-11.23h-5.61c.43-4.05-.04-7.79-1.4-11.23v-33.68Z"/>
  <path class="cls-78" d="M28.17,279.42v5.61h-5.61v4.21c-1.81-.33-3.21,.13-4.21,1.4h-7.02v4.21c-2.9,.02-5.7,.49-8.42,1.4v-5.61c2.35-.96,3.29-2.83,2.81-5.61,5.66,0,11.27-.47,16.84-1.4v-4.21h5.61Z"/>
  <path class="cls-88" d="M357.93,279.42h5.61v4.21h-5.61v-4.21Z"/>
  <path class="cls-88" d="M467.39,279.42h5.61v5.61h-5.61v-5.61Z"/>
  <path class="cls-51" d="M144.64,290.65h-12.63v-1.4c1.27-.99,1.74-2.4,1.4-4.21h11.23v5.61Z"/>
  <path class="cls-38" d="M374.77,285.03h7.02c-.48,2.78,.45,4.65,2.81,5.61-.53,3.08-1.46,5.89-2.81,8.42-.47-2.81-.94-5.61-1.4-8.42h-5.61v-5.61Z"/>
  <path class="cls-88" d="M473,285.03h5.61v5.61h5.61v5.61h-11.23v-11.23Z"/>
  <path class="cls-61" d="M50.62,289.24v5.61c-5.55,1.08-11.16,1.55-16.84,1.4v-5.61c5.68,.15,11.29-.32,16.84-1.4Z"/>
  <path class="cls-63" d="M181.12,289.24c2.67,3.93,5.01,8.14,7.02,12.63h-32.27v-11.23c8.59-.24,17.01-.71,25.26-1.4Z"/>
  <path class="cls-74" d="M335.48,289.24c.99,1.27,2.4,1.74,4.21,1.4-.16,4.79,2.18,6.66,7.02,5.61h5.61v5.61h5.61v5.61h11.23c-.67,4.79,.73,8.54,4.21,11.23-1.78,4.99-4.59,9.2-8.42,12.63-1.12-2.16-1.59-4.5-1.4-7.02h-5.61v-4.21c-3.74-.47-7.48-.94-11.23-1.4v-5.61h-5.61v-5.61h-12.63v-5.61c2.01-4.48,4.34-8.69,7.02-12.63Z"/>
  <path class="cls-88" d="M18.34,290.65h15.44v5.61H16.94v5.61H5.71v5.61h-1.4c.31-3.9-.16-7.64-1.4-11.23,2.72-.91,5.52-1.38,8.42-1.4v-4.21h7.02Z"/>
  <path class="cls-88" d="M132.01,290.65h23.86v5.61c-7.58-.75-15.07-.75-22.45,0-.47-1.87-.94-3.74-1.4-5.61Z"/>
  <path class="cls-65" d="M50.62,294.85v7.02h-15.44v5.61h-7.02v-5.61h5.61v-5.61c5.68,.15,11.29-.32,16.84-1.4Z"/>
  <path class="cls-57" d="M155.86,296.26v5.61h32.27c1.39,1.82,2.79,3.69,4.21,5.61h-42.1v-5.61h-14.03c-1.65-1.42-2.58-3.29-2.81-5.61,7.39-.75,14.87-.75,22.45,0Z"/>
  <path class="cls-88" d="M33.78,296.26v5.61h-5.61v5.61H5.71v-5.61h11.23v-5.61h16.84Z"/>
  <path class="cls-88" d="M346.71,296.26h5.61v5.61h-5.61v-5.61Z"/>
  <path class="cls-88" d="M485.63,296.26h11.23c-.47,3.74-.94,7.48-1.4,11.23h-9.82v-11.23Z"/>
  <path class="cls-49" d="M50.62,301.87v5.61h-15.44v-5.61h15.44Z"/>
  <path class="cls-69" d="M136.22,301.87h14.03v11.23h-5.61v-5.61h-7.02c-1.03-1.7-1.5-3.57-1.4-5.61Z"/>
  <path class="cls-77" d="M328.46,301.87v5.61h12.63v5.61h5.61v5.61c3.74,.47,7.48,.94,11.23,1.4v4.21h5.61c-.19,2.51,.28,4.85,1.4,7.02-.74,2.43-2.14,4.3-4.21,5.61-2.46-1.48-3.4-3.82-2.81-7.02h-5.61c.47-4.21-1.4-6.08-5.61-5.61h-5.61c.47-4.21-1.4-6.08-5.61-5.61,.24-1.86-.23-3.49-1.4-4.91-4.22-.16-7.96-1.33-11.23-3.51,1.33-3.2,3.2-6,5.61-8.42Z"/>
  <path class="cls-88" d="M4.31,307.48H28.17v5.61H11.33v5.61H4.31v-11.23Z"/>
  <path class="cls-84" d="M28.17,307.48h22.45v11.23c-5,1.3-10.15,1.76-15.44,1.4v4.21c-8-.18-15.95,.29-23.86,1.4v4.21H4.31v-11.23h7.02v-5.61H28.17v-5.61Z"/>
  <path class="cls-77" d="M137.62,307.48h7.02v5.61h5.61v-5.61h5.61v5.61c5.66,0,11.27,.47,16.84,1.4v4.21h12.63c-1.03,1.7-1.5,3.57-1.4,5.61h-16.84v-4.21h-16.84v4.21c-1.39-.24-2.33,.23-2.81,1.4-3.61-5.81-6.88-11.89-9.82-18.24Z"/>
  <path class="cls-77" d="M155.86,307.48h36.48c5.15,6.08,10.76,11.69,16.84,16.84h-12.63c.24-1.86-.23-3.49-1.4-4.91-3.24-.7-6.52-.93-9.82-.7h-12.63v-4.21c-5.57-.93-11.18-1.4-16.84-1.4v-5.61Z"/>
  <path class="cls-65" d="M465.98,307.48c1.37,3.44,1.83,7.18,1.4,11.23h5.61v11.23c3.8,.11,7.54,.57,11.23,1.4-.16,4.79,2.18,6.66,7.02,5.61v5.61h5.61v11.23h5.61v5.61h5.61c-.75,4.49,.18,8.23,2.81,11.23-.83,11.88-2.7,23.57-5.61,35.08-2.62-3-3.56-6.74-2.81-11.23h-5.61v-11.23h-5.61v-7.02h-5.61v-5.61h-5.61c-.47-3.74-.94-7.48-1.4-11.23h-5.61v-11.23h-5.61c.75-4.49-.18-8.23-2.81-11.23,1.35-9.7,1.82-19.52,1.4-29.47Z"/>
  <path class="cls-88" d="M496.85,307.48h11.23v11.23h-5.61v-5.61h-5.61v-5.61Z"/>
  <path class="cls-47" d="M322.85,310.29c3.27,2.17,7.01,3.34,11.23,3.51,1.17,1.42,1.64,3.06,1.4,4.91,4.21-.47,6.08,1.4,5.61,5.61h5.61v5.61h-5.61c.47-4.21-1.4-6.08-5.61-5.61,.24-1.86-.23-3.49-1.4-4.91-3.71-.7-7.46-.93-11.23-.7,.48-2.78-.45-4.65-2.81-5.61,.47-1.4,1.4-2.34,2.81-2.81Z"/>
  <path class="cls-35" d="M320.04,313.1c2.35,.96,3.29,2.83,2.81,5.61-2.78,.48-4.65-.45-5.61-2.81,.47-1.4,1.4-2.34,2.81-2.81Z"/>
  <path class="cls-73" d="M317.24,315.9c.96,2.35,2.83,3.29,5.61,2.81v5.61h11.23v5.61c4.84-1.04,7.18,.83,7.02,5.61h5.61v7.02h9.82c-2.81,3.74-6.08,7.02-9.82,9.82v-4.21h-7.02c-.99-1.27-2.4-1.74-4.21-1.4v-9.82c-3.8-.11-7.54-.57-11.23-1.4,.16-4.79-2.18-6.66-7.02-5.61v-5.61h-9.82c2.96-3.13,6.23-5.93,9.82-8.42Z"/>
  <path class="cls-51" d="M50.62,318.71v5.61c-5.12,1.65-10.27,1.65-15.44,0v-4.21c5.29,.36,10.43-.11,15.44-1.4Z"/>
  <path class="cls-73" d="M185.33,318.71c3.31-.23,6.58,0,9.82,.7,1.17,1.42,1.64,3.06,1.4,4.91h12.63c7.54,3.77,15.02,7.51,22.45,11.23-3.93,.86-8.14,.86-12.63,0v-4.21c-9.37-.16-18.73-.63-28.07-1.4v-5.61h-7.02c-.09-2.05,.37-3.92,1.4-5.61Z"/>
  <path class="cls-66" d="M322.85,318.71c3.77-.23,7.51,0,11.23,.7,1.17,1.42,1.64,3.06,1.4,4.91,4.21-.47,6.08,1.4,5.61,5.61h5.61v-5.61c4.21-.47,6.08,1.4,5.61,5.61h5.61c-.59,3.2,.34,5.54,2.81,7.02-.74,2.43-2.14,4.3-4.21,5.61h-9.82v-7.02h-5.61c.16-4.79-2.18-6.66-7.02-5.61v-5.61h-11.23v-5.61Z"/>
  <path class="cls-88" d="M161.48,320.11v4.21h-11.23v-4.21h11.23Z"/>
  <path class="cls-44" d="M161.48,320.11h5.61v4.21h23.86v5.61c9.34,.78,18.69,1.25,28.07,1.4v4.21c4.48,.86,8.69,.86,12.63,0,2.05-.09,3.92,.37,5.61,1.4-.43,.91-.89,1.85-1.4,2.81,2.17,1.34,4.51,1.8,7.02,1.4,1.5,1.31,3.37,1.78,5.61,1.4v5.61h11.23v5.61h11.23v5.61h5.61c2.38-.22,4.72,0,7.02,.7-1.17,1.42-1.64,3.06-1.4,4.91h7.02v5.61h11.23v5.61c2.24-.38,4.11,.09,5.61,1.4-5.85,2.52-11.93,4.39-18.24,5.61v-5.61h-4.21c-3.58-1.25-7.33-1.71-11.23-1.4,.09-2.05-.37-3.92-1.4-5.61v-4.21c-5.57-.93-11.18-1.4-16.84-1.4v-5.61h-11.23v-5.61h-5.61v-5.61c-9.84-.11-19.67-.58-29.47-1.4v-4.21h-5.61v-5.61c-3.74-.47-7.48-.94-11.23-1.4v-4.21c-13.56-.64-27.12-1.11-40.69-1.4-1.26-1.11-2.2-2.51-2.81-4.21,.48-1.18,1.41-1.64,2.81-1.4h11.23v-4.21Z"/>
  <path class="cls-43" d="M35.18,324.32c-1.03,1.7-1.5,3.57-1.4,5.61-4.21-.47-6.08,1.4-5.61,5.61-1.81-.33-3.21,.13-4.21,1.4h-7.02v5.61H5.71c.33,1.81-.13,3.21-1.4,4.21v-5.61c1.31-1.5,1.78-3.37,1.4-5.61h5.61v-9.82c7.9-1.11,15.85-1.58,23.86-1.4Z"/>
  <path class="cls-88" d="M35.18,324.32c5.17,1.65,10.31,1.65,15.44,0v11.23c-8.51,.82-17.4,1.28-26.66,1.4,.99-1.27,2.4-1.74,4.21-1.4-.47-4.21,1.4-6.08,5.61-5.61-.09-2.05,.37-3.92,1.4-5.61Z"/>
  <path class="cls-59" d="M307.41,324.32h9.82v5.61c4.84-1.04,7.18,.83,7.02,5.61,3.69,.83,7.43,1.3,11.23,1.4v9.82c1.81-.33,3.21,.13,4.21,1.4h-5.61v-5.61c-3.31,.23-6.58,0-9.82-.7-1.17-1.42-1.64-3.06-1.4-4.91h-5.61v-5.61c-5.87-.49-11.48-1.43-16.84-2.81,1.96-1.95,4.3-3.35,7.02-4.21Z"/>
  <path class="cls-60" d="M300.4,328.53c5.35,1.38,10.97,2.31,16.84,2.81v5.61h5.61c-.24,1.86,.23,3.49,1.4,4.91,3.24,.7,6.52,.93,9.82,.7v5.61h5.61v5.61h5.61c-2.88,2.87-6.15,5.21-9.82,7.02-1.99-1.33-4.33-1.8-7.02-1.4v-5.61h-5.61v-5.61c-3.74-.47-7.48-.94-11.23-1.4v-4.21h-5.61v-5.61c-3.74-.47-7.48-.94-11.23-1.4v-4.21c1.42-1.65,3.29-2.58,5.61-2.81Z"/>
  <path class="cls-25" d="M4.31,329.94h7.02v5.61H5.71c.38,2.24-.09,4.11-1.4,5.61v-11.23Z"/>
  <path class="cls-51" d="M150.25,329.94c13.57,.29,27.14,.76,40.69,1.4v4.21c3.74,.47,7.48,.94,11.23,1.4v5.61h5.61v4.21c9.8,.83,19.62,1.29,29.47,1.4v5.61h5.61v5.61h11.23v5.61c5.66,0,11.27,.47,16.84,1.4v4.21c-7.41,.97-14.9,.97-22.45,0v-5.61h-12.63c-.24-1.86,.23-3.49,1.4-4.91-2.29-.69-4.63-.93-7.02-.7h-11.23v-5.61h-22.45v-5.61h-7.02v5.61h-4.21v-5.61h-12.63c-1.5-1.31-3.37-1.78-5.61-1.4v-4.21h-5.61v-5.61h-5.61c-2.19-2.03-4.06-4.37-5.61-7.02Z"/>
  <path class="cls-56" d="M294.79,331.34v4.21c3.74,.47,7.48,.94,11.23,1.4v5.61h5.61v4.21c3.74,.47,7.48,.94,11.23,1.4v5.61h5.61v5.61c2.69-.4,5.03,.07,7.02,1.4-1.51,2.87-3.85,4.74-7.02,5.61-1.5-1.31-3.37-1.78-5.61-1.4v-5.61h-5.61v-5.61h-11.23v-5.61h-5.61v-5.61c-3.77,.23-7.51,0-11.23-.7-1.01-2.46-2.42-4.56-4.21-6.31,3.02-1.73,6.29-3.14,9.82-4.21Z"/>
  <path class="cls-86" d="M50.62,335.55c1.33,1.99,1.8,4.33,1.4,7.02H29.57c.24,1.86-.23,3.49-1.4,4.91-3.71,.7-7.46,.93-11.23,.7v5.61H5.71v5.61c-1.37-3.91-1.84-8.12-1.4-12.63,1.27-.99,1.74-2.4,1.4-4.21h11.23v-5.61h7.02c9.26-.12,18.15-.59,26.66-1.4Z"/>
  <path class="cls-17" d="M155.86,336.95h5.61v5.61h5.61v4.21c2.24-.38,4.11,.09,5.61,1.4h-7.02c-4.28-2.88-7.55-6.62-9.82-11.23Z"/>
  <path class="cls-7" d="M237.25,336.95c2.05-.09,3.92,.37,5.61,1.4v2.81c-2.51,.4-4.85-.07-7.02-1.4,.51-.96,.98-1.89,1.4-2.81Z"/>
  <path class="cls-56" d="M242.87,338.36c9.37,1.72,18.73,1.72,28.07,0,2.84,3.08,6.58,4.48,11.23,4.21-.16,4.79,2.18,6.66,7.02,5.61v5.61h11.23v5.61h11.23v5.61h5.61v7.02c-3.3,2.58-7.04,4.45-11.23,5.61-1.5-1.31-3.37-1.78-5.61-1.4v-5.61h-5.61c.47-4.21-1.4-6.08-5.61-5.61h-7.02c-.24-1.86,.23-3.49,1.4-4.91-2.29-.69-4.63-.93-7.02-.7h-5.61v-11.23h-22.45v-5.61c-2.24,.38-4.11-.09-5.61-1.4v-2.81Z"/>
  <path class="cls-66" d="M52.02,342.57v11.23h-18.24v5.61H5.71v-5.61h11.23v-5.61c3.77,.23,7.51,0,11.23-.7,1.17-1.42,1.64-3.06,1.4-4.91h22.45Z"/>
  <path class="cls-88" d="M248.48,342.57h5.61v0h-5.61Z"/>
  <path class="cls-70" d="M165.69,348.18h19.65v5.61h22.45v5.61h22.45c1.03,1.7,1.5,3.57,1.4,5.61h5.61v5.61h-29.47v-5.61c-6.82-.45-13.37,.02-19.65,1.4-8.33-5.06-15.82-11.14-22.45-18.24Z"/>
  <path class="cls-88" d="M196.56,353.79h-7.02v-5.61h7.02v5.61Z"/>
  <path class="cls-88" d="M259.7,348.18h11.23v5.61h-11.23v-5.61Z"/>
  <path class="cls-78" d="M284.96,335.55c1.79,1.75,3.2,3.86,4.21,6.31,3.71,.7,7.46,.93,11.23,.7v5.61h5.61v5.61h11.23v5.61h5.61v5.61c2.24-.38,4.11,.09,5.61,1.4-3.3,2.58-7.04,4.45-11.23,5.61v-7.02h-5.61v-5.61h-11.23v-5.61h-11.23v-5.61c-4.84,1.04-7.18-.83-7.02-5.61-4.65,.27-8.39-1.13-11.23-4.21,4.68-.94,9.36-1.87,14.03-2.81Z"/>
  <path class="cls-87" d="M339.69,348.18h7.02v4.21c0,.94-.47,1.4-1.4,1.4h-5.61v-5.61Z"/>
  <path class="cls-83" d="M52.02,353.79v11.23h-18.24v-11.23h18.24Z"/>
  <path class="cls-88" d="M207.78,353.79h11.23v5.61h-11.23v-5.61Z"/>
  <path class="cls-88" d="M270.93,353.79h5.61v0h-5.61Z"/>
  <path class="cls-45" d="M5.71,359.4h28.07v5.61h-4.21c-3.8,.11-7.54,.57-11.23,1.4v4.21c-4.23,.29-8.44,.75-12.63,1.4v-12.63Z"/>
  <path class="cls-88" d="M230.24,359.4c2.38-.22,4.72,0,7.02,.7-1.17,1.42-1.64,3.06-1.4,4.91h-4.21c.09-2.05-.37-3.92-1.4-5.61Z"/>
  <path class="cls-88" d="M29.57,365.02v5.61h-11.23v-4.21c3.69-.83,7.43-1.3,11.23-1.4Z"/>
  <path class="cls-64" d="M29.57,365.02h22.45c1.03,1.7,1.5,3.57,1.4,5.61h-19.65v5.61h-9.82v-4.21h-7.02v9.82h-5.61v-5.61H5.71v-4.21c4.19-.65,8.39-1.12,12.63-1.4h11.23v-5.61Z"/>
  <path class="cls-82" d="M207.78,370.63h-5.61v-4.21h-5.61v4.21c-3.25-.69-6.06-2.09-8.42-4.21,6.27-1.38,12.82-1.85,19.65-1.4v5.61Z"/>
  <path class="cls-88" d="M237.25,365.02h11.23v5.61c7.55,.97,15.04,.97,22.45,0,1.03,1.7,1.5,3.57,1.4,5.61,3.9-.31,7.64,.16,11.23,1.4v7.02c-4.18,.65-8.39,1.12-12.63,1.4v-4.21c-3.6,1.22-7.34,1.22-11.23,0v-4.21c-3.74-.47-7.48-.94-11.23-1.4,.24-1.86-.23-3.49-1.4-4.91-3.24-.7-6.52-.93-9.82-.7v-5.61Z"/>
  <path class="cls-88" d="M289.17,365.02c4.21-.47,6.08,1.4,5.61,5.61h-5.61v-5.61Z"/>
  <path class="cls-74" d="M464.58,359.4c2.7,4.95,3.63,10.57,2.81,16.84h5.61v5.61h11.23c1.31,5.94,1.78,12.02,1.4,18.24h5.61v11.23h5.61v5.61h4.21c-1.27,6.16-3.6,11.77-7.02,16.84-2.64-6.89-4.04-14.37-4.21-22.45h-5.61v-11.23h-5.61v-5.61h-5.61v-11.23h-5.61v-5.61h-4.21c.12-6.11,.59-12.19,1.4-18.24Z"/>
  <path class="cls-88" d="M464.58,336.95c2.62,3,3.56,6.74,2.81,11.23h5.61v11.23h5.61c.47,3.74,.94,7.48,1.4,11.23h5.61v5.61h5.61v7.02c-2.16-1.12-4.5-1.59-7.02-1.4h-11.23v-5.61h-5.61c.83-6.27-.11-11.89-2.81-16.84v-22.45Z"/>
  <path class="cls-33" d="M207.78,370.63v5.61c-4.19-1.16-7.93-3.03-11.23-5.61v-4.21h5.61v4.21h5.61Z"/>
  <path class="cls-68" d="M53.43,370.63c.11,3.8,.57,7.54,1.4,11.23-8.42,.7-16.84,1.17-25.26,1.4v4.21c-4.19,.65-8.39,1.12-12.63,1.4v5.61c-2.9-.02-5.7-.49-8.42-1.4-.81-5.65-1.74-11.26-2.81-16.84h5.61v5.61h5.61v-9.82h7.02v4.21h9.82v-5.61h19.65Z"/>
  <path class="cls-69" d="M207.78,370.63h29.47c3.31-.23,6.58,0,9.82,.7,1.17,1.42,1.64,3.06,1.4,4.91,3.74,.47,7.48,.94,11.23,1.4v4.21c3.89,1.22,7.63,1.22,11.23,0v4.21c-10.77,.23-21.53,0-32.27-.7-6.82-.77-13.37-2.41-19.65-4.91v-4.21c-3.59-.42-6.87,.04-9.82,1.4-.94,0-1.4-.47-1.4-1.4v-5.61Z"/>
  <path class="cls-16" d="M209.19,377.65c2.96-1.36,6.23-1.83,9.82-1.4v4.21c-3.4-.53-6.67-1.47-9.82-2.81Z"/>
  <path class="cls-88" d="M283.56,377.65h4.21v5.61c-1.25,.86-2.65,1.32-4.21,1.4v-7.02Z"/>
  <path class="cls-58" d="M463.18,377.65h4.21v5.61h5.61v11.23h5.61v5.61h5.61v11.23h5.61c.17,8.08,1.57,15.56,4.21,22.45-1.82,5.5-4.39,10.65-7.72,15.44-.99,1.24-2.16,2.17-3.51,2.81h-4.21v-11.23h-4.21c.38-2.24-.09-4.11-1.4-5.61v-5.61h-5.61v-12.63h-5.61v-11.23h-5.61c2.38-9.51,4.72-18.86,7.02-28.07Z"/>
  <path class="cls-49" d="M54.83,381.86c.72,4.26,1.65,8.47,2.81,12.63h-23.86v4.21c-5.55,1.08-11.16,1.55-16.84,1.4v5.61h-5.61c-.94-4.21-1.87-8.42-2.81-12.63,2.72,.91,5.52,1.38,8.42,1.4v-5.61c4.23-.29,8.44-.75,12.63-1.4v-4.21c8.42-.24,16.84-.7,25.26-1.4Z"/>
  <path class="cls-53" d="M484.23,381.86c2.51-.19,4.85,.28,7.02,1.4h5.61v11.23h5.61c-.75,4.49,.18,8.23,2.81,11.23-.88,4.07-2.29,7.81-4.21,11.23h-4.21v-5.61h-5.61v-11.23h-5.61c.38-6.22-.09-12.3-1.4-18.24Z"/>
  <path class="cls-88" d="M57.64,394.49v2.81c-7.35,2.74-15.3,3.67-23.86,2.81v5.61h-11.23v5.61h-5.61v5.61h-1.4c-1.92-3.42-3.33-7.16-4.21-11.23h5.61v-5.61c5.68,.15,11.29-.32,16.84-1.4v-4.21h23.86Z"/>
  <path class="cls-88" d="M57.64,397.29c2.12,4.46,3.99,9.14,5.61,14.03h-5.61v-5.61h-5.61v5.61h-16.84v5.61H16.94v-5.61h5.61v-5.61h11.23v-5.61c8.56,.87,16.51-.07,23.86-2.81Z"/>
  <path class="cls-72" d="M456.16,405.71v11.23h11.23v12.63h5.61v5.61c-.23,3.31,0,6.58,.7,9.82,1.42,1.17,3.06,1.64,4.91,1.4v5.61h4.21c-3.57,7.32-8.72,13.4-15.44,18.24v-18.24h-5.61v-11.23h-5.61c.23-3.77,0-7.51-.7-11.23-1.42-1.17-3.06-1.64-4.91-1.4v-5.61h-4.21c3.29-5.66,6.57-11.28,9.82-16.84Z"/>
  <path class="cls-88" d="M456.16,405.71h5.61v11.23h-5.61v-11.23Z"/>
  <path class="cls-72" d="M46.41,411.33h5.61v5.61h11.23c-.33-1.81,.13-3.21,1.4-4.21,1.52,3.5,3.39,6.78,5.61,9.82-8-.18-15.96,.29-23.86,1.4-1.7-1.03-3.57-1.5-5.61-1.4v-4.21c4.79,.16,6.66-2.18,5.61-7.02Z"/>
  <path class="cls-59" d="M63.25,411.33c.94,0,1.4,.47,1.4,1.4-1.27,.99-1.74,2.4-1.4,4.21h-11.23v-11.23h5.61v5.61h5.61Z"/>
  <path class="cls-50" d="M46.41,411.33c1.04,4.84-.83,7.18-5.61,7.02v4.21c2.05-.09,3.92,.37,5.61,1.4v4.21c-8.97-.35-17.86,.12-26.66,1.4-1.8-4.07-3.2-8.28-4.21-12.63h19.65v-5.61h11.23Z"/>
  <path class="cls-88" d="M461.77,416.94h5.61v5.61h-5.61v-5.61Z"/>
  <path class="cls-66" d="M70.26,422.55c1.4,1.87,2.81,3.74,4.21,5.61-7.35,1.33-14.84,1.8-22.45,1.4v4.21c-3.74,.47-7.48,.94-11.23,1.4h-5.61v4.21c-3.91-.82-6.25,.58-7.02,4.21-3.49-4.16-6.3-8.84-8.42-14.03,8.81-1.29,17.69-1.76,26.66-1.4v-4.21c7.9-1.11,15.85-1.58,23.86-1.4Z"/>
  <path class="cls-77" d="M443.53,426.76c2.15,.8,4.25,1.73,6.31,2.81,.7,3.71,.93,7.46,.7,11.23h5.61v22.45h5.61v5.61h5.61v1.4c-3.68,3.26-7.43,6.53-11.23,9.82,.09-2.05-.37-3.92-1.4-5.61v-4.21h-4.21v-12.63h-5.61v-11.23h-5.61c-.65-4.18-1.12-8.39-1.4-12.63,1.55-2.65,3.42-4.99,5.61-7.02Z"/>
  <path class="cls-57" d="M74.47,428.16c3.27,4.21,7.02,7.95,11.23,11.23-3.44,1.37-7.18,1.83-11.23,1.4v4.21h-5.61v-4.21h-5.61v5.61h-16.84v5.61h-12.63c-3.26-1.83-5.13-4.63-5.61-8.42,.77-3.63,3.11-5.03,7.02-4.21v-4.21h5.61v4.21h9.82c-.09-2.05,.37-3.92,1.4-5.61v-4.21c7.62,.4,15.1-.07,22.45-1.4Z"/>
  <path class="cls-88" d="M446.34,422.55h4.21v5.61c1.86-.24,3.49,.23,4.91,1.4,.7,3.71,.93,7.46,.7,11.23h-5.61c.23-3.77,0-7.51-.7-11.23-2.06-1.08-4.17-2.01-6.31-2.81,.94-1.4,1.87-2.81,2.81-4.21Z"/>
  <path class="cls-88" d="M52.02,433.78c-1.03,1.7-1.5,3.57-1.4,5.61h-9.82v-4.21c3.74-.47,7.48-.94,11.23-1.4Z"/>
  <path class="cls-22" d="M437.92,433.78c.29,4.24,.75,8.44,1.4,12.63h-7.02c.19-2.51-.28-4.85-1.4-7.02,2.3-1.83,4.64-3.7,7.02-5.61Z"/>
  <path class="cls-88" d="M473,435.18c1.31,1.5,1.78,3.37,1.4,5.61h4.21v5.61c-1.86,.24-3.49-.23-4.91-1.4-.7-3.24-.93-6.52-.7-9.82Z"/>
  <path class="cls-49" d="M85.7,439.39c2.37,1.91,4.71,3.78,7.02,5.61-5.8,1.38-11.88,1.85-18.24,1.4v5.61h-28.07v-5.61h16.84v-5.61h5.61v4.21h5.61v-4.21c4.05,.43,7.79-.04,11.23-1.4Z"/>
  <path class="cls-48" d="M430.9,439.39c1.12,2.16,1.59,4.5,1.4,7.02h7.02v11.23h5.61v5.61h4.21v5.61h-4.21v5.61h9.82c1.03,1.7,1.5,3.57,1.4,5.61-3.27,3.04-7.01,5.38-11.23,7.02v-5.61h-5.61v-7.02h-5.61c.38-2.24-.09-4.11-1.4-5.61v-5.61h-5.61v-5.61h-4.21c.38-2.24-.09-4.11-1.4-5.61v-5.61c3.52-1.99,6.8-4.33,9.82-7.02Z"/>
  <path class="cls-79" d="M92.72,445c4.48,2.01,8.69,4.34,12.63,7.02h-12.63v5.61h-5.61v-5.61h-7.02v5.61h-28.07v5.61c-3.14-.41-5.94,.05-8.42,1.4-3.8-3.8-7.08-8.01-9.82-12.63h40.69v-5.61c6.36,.45,12.44-.02,18.24-1.4Z"/>
  <path class="cls-6" d="M421.08,446.41v5.61h-5.61v5.61h-5.61v-5.61c3.74-1.87,7.48-3.74,11.23-5.61Z"/>
  <path class="cls-88" d="M439.32,446.41h5.61v11.23h-5.61v-11.23Z"/>
  <path class="cls-68" d="M105.35,452.02c1.56,.08,2.96,.55,4.21,1.4v4.21h-16.84v-5.61h12.63Z"/>
  <path class="cls-88" d="M421.08,452.02c1.31,1.5,1.78,3.37,1.4,5.61h-7.02v-5.61h5.61Z"/>
  <path class="cls-88" d="M456.16,440.79h5.61v11.23h5.61v16.84h-5.61v-5.61h-5.61v-22.45Z"/>
  <path class="cls-81" d="M92.72,457.63h16.84v-4.21c8.71,2.76,17.59,4.87,26.66,6.31,20.07,1.81,40.19,2.98,60.34,3.51v5.61h-5.61v5.61h-16.84c.24-1.86-.23-3.49-1.4-4.91-7.47-.7-14.95-.93-22.45-.7,.37-4.54-1.74-6.41-6.31-5.61-4.58-.8-6.68,1.07-6.31,5.61h-4.21c.24-1.86-.23-3.49-1.4-4.91-18.71-.94-37.42-.94-56.13,0-1.17,1.42-1.64,3.06-1.4,4.91h-16.84c.48,2.78-.45,4.65-2.81,5.61-4.58-2.24-8.32-5.51-11.23-9.82,2.48-1.35,5.28-1.82,8.42-1.4v-5.61h28.07v-5.61h7.02v5.61h5.61Z"/>
  <path class="cls-74" d="M404.24,454.83v14.03h-5.61v-5.61h-5.61v-5.61c3.6-1.37,7.34-2.3,11.23-2.81Z"/>
  <path class="cls-73" d="M393.01,457.63v5.61h5.61v5.61h5.61v5.61c-1.7,1.03-3.57,1.5-5.61,1.4v4.21h-5.61c-.24-3.31-.71-6.59-1.4-9.82-4.79,.16-6.66-2.18-5.61-7.02-4.05,.72-7.33-.22-9.82-2.81,5.61-.94,11.23-1.87,16.84-2.81Z"/>
  <path class="cls-66" d="M409.85,452.02v11.23h5.61v5.61h5.61c-.15,5.68,.32,11.29,1.4,16.84,4.79-.16,6.66,2.18,5.61,7.02h5.61c-3.52,2.12-7.26,3.99-11.23,5.61-1.12-2.16-1.59-4.5-1.4-7.02h-5.61v-9.82c-3.74-.47-7.48-.94-11.23-1.4v-25.26c1.64-1.19,3.52-2.12,5.61-2.81Z"/>
  <path class="cls-88" d="M409.85,457.63h5.61v5.61h-5.61v-5.61Z"/>
  <path class="cls-84" d="M415.47,457.63h11.23v5.61h-4.21v5.61h9.82c1.31,1.5,1.78,3.37,1.4,5.61v5.61h4.21v11.23c-1.25,.86-2.65,1.32-4.21,1.4h-5.61c1.04-4.84-.83-7.18-5.61-7.02-1.08-5.55-1.55-11.16-1.4-16.84h-5.61v-11.23Z"/>
  <path class="cls-18" d="M374.77,460.44v8.42h-4.21v-5.61h-7.02v-1.4c3.74-.47,7.48-.94,11.23-1.4Z"/>
  <path class="cls-53" d="M374.77,460.44h1.4c2.5,2.59,5.77,3.52,9.82,2.81-1.04,4.84,.83,7.18,5.61,7.02,.69,3.24,1.16,6.51,1.4,9.82h5.61v5.61h5.61v5.61h5.61v11.23c-3.69,.83-7.43,1.3-11.23,1.4,1.04-4.84-.83-7.18-5.61-7.02v-9.82h-5.61c1.04-4.84-.83-7.18-5.61-7.02,.47-4.21-1.4-6.08-5.61-5.61,.09-2.05-.37-3.92-1.4-5.61v-8.42Z"/>
  <path class="cls-68" d="M338.29,463.25c2.48-1.35,5.28-1.82,8.42-1.4,1.5,1.31,3.37,1.78,5.61,1.4v5.61h5.61v5.61h5.61v5.61h5.61v12.63c-4.79,.16-6.66-2.18-5.61-7.02h-5.61v-5.61h-5.61c.47-4.21-1.4-6.08-5.61-5.61v-5.61h-5.61c.48-2.78-.45-4.65-2.81-5.61Z"/>
  <path class="cls-76" d="M346.71,461.84h16.84v7.02h5.61v11.23h-5.61v-5.61h-5.61v-5.61h-5.61v-5.61c-2.24,.38-4.11-.09-5.61-1.4Z"/>
  <path class="cls-88" d="M133.41,468.86c-1.31,1.5-1.78,3.37-1.4,5.61h-11.23v-5.61c-5.83,.73-11.44,.73-16.84,0v5.61h-16.84c.21-5.14-1.89-6.54-6.31-4.21-.68,1.33-.91,2.73-.7,4.21-4.21-.47-6.08,1.4-5.61,5.61h-5.61v5.61c-5.25-3.08-9.92-6.83-14.03-11.23,2.35-.96,3.29-2.83,2.81-5.61h16.84c-.24-1.86,.23-3.49,1.4-4.91,18.71-.94,37.42-.94,56.13,0,1.17,1.42,1.64,3.06,1.4,4.91Z"/>
  <path class="cls-88" d="M150.25,468.86h-12.63c-.37-4.54,1.74-6.41,6.31-5.61,4.58-.8,6.68,1.07,6.31,5.61Z"/>
  <path class="cls-54" d="M196.56,463.25h29.47v5.61c5.66,0,11.27,.47,16.84,1.4v4.21c3.74,.47,7.48,.94,11.23,1.4v4.21h11.23v5.61c2.24-.38,4.11,.09,5.61,1.4h-5.61v4.21h-11.23v-4.21h-11.23v-5.61c-5.57-.93-11.18-1.4-16.84-1.4,.24-1.86-.23-3.49-1.4-4.91-5.59-.7-11.21-.93-16.84-.7v-5.61h-11.23v-5.61Z"/>
  <path class="cls-54" d="M226.03,463.25h22.45v5.61h11.23v5.61c3.8,.11,7.54,.57,11.23,1.4v4.21h5.61c2.16,1.12,4.5,1.59,7.02,1.4v5.61h5.61v4.21c-3.52,1.4-7.26,1.4-11.23,0,.33-1.81-.13-3.21-1.4-4.21h-5.61c-1.5-1.31-3.37-1.78-5.61-1.4v-5.61h-11.23v-4.21c-3.74-.47-7.48-.94-11.23-1.4v-4.21c-5.57-.93-11.18-1.4-16.84-1.4v-5.61Z"/>
  <path class="cls-28" d="M248.48,463.25h11.23v5.61h-11.23v-5.61Z"/>
  <path class="cls-28" d="M270.93,463.25h11.23v5.61h-11.23v-5.61Z"/>
  <path class="cls-51" d="M282.16,463.25h7.02v5.61c3.31-.23,6.58,0,9.82,.7,1.17,1.42,1.64,3.06,1.4,4.91h5.61v5.61h11.23v7.02h5.61v4.21h5.61v7.02h-5.61v5.61h-5.61v-11.23h-11.23v-5.61c-3.74-.47-7.48-.94-11.23-1.4v-5.61h-5.61c.16-4.79-2.18-6.66-7.02-5.61v-11.23Z"/>
  <path class="cls-53" d="M289.17,463.25h22.45v5.61c3.89,1.22,7.63,1.22,11.23,0-1.04,4.84,.83,7.18,5.61,7.02-.47,4.21,1.4,6.08,5.61,5.61v5.61h5.61c-.47,4.21,1.4,6.08,5.61,5.61-.09,2.05,.37,3.92,1.4,5.61v11.23h-7.02v-5.61h-9.82c.38-2.24-.09-4.11-1.4-5.61v-7.02h-5.61v-4.21h-5.61v-7.02h-11.23v-5.61h-5.61c.24-1.86-.23-3.49-1.4-4.91-3.24-.7-6.52-.93-9.82-.7v-5.61Z"/>
  <path class="cls-85" d="M311.62,463.25h12.63v5.61h9.82v5.61h5.61c-.94,5.61,1.4,7.95,7.02,7.02v5.61h5.61v4.21h5.61v12.63h-5.61v-5.61h-5.61c-1.03-1.7-1.5-3.57-1.4-5.61-4.21,.47-6.08-1.4-5.61-5.61h-5.61v-5.61c-4.21,.47-6.08-1.4-5.61-5.61-4.79,.16-6.66-2.18-5.61-7.02-3.6,1.22-7.34,1.22-11.23,0v-5.61Z"/>
  <path class="cls-88" d="M324.25,463.25h14.03c2.35,.96,3.29,2.83,2.81,5.61h5.61v5.61c4.21-.47,6.08,1.4,5.61,5.61h5.61v5.61h5.61c-1.04,4.84,.83,7.18,5.61,7.02v5.61h-11.23v-7.02h-5.61v-4.21h-5.61v-5.61c-5.61,.94-7.95-1.4-7.02-7.02h-5.61v-5.61h-9.82v-5.61Z"/>
  <path class="cls-88" d="M426.69,463.25h5.61v5.61h-9.82v-5.61h4.21Z"/>
  <path class="cls-88" d="M444.93,457.63h5.61v12.63h4.21v4.21h-9.82v-5.61h4.21v-5.61h-4.21v-5.61Z"/>
  <path class="cls-88" d="M120.78,474.47c-3.05,1.05-6.32,1.28-9.82,.7-1.17,1.42-1.64,3.06-1.4,4.91h-5.61v-4.21h-11.23v4.21h-18.24c-.47-4.21,1.4-6.08,5.61-5.61-.21-1.48,.02-2.88,.7-4.21,4.42-2.33,6.53-.93,6.31,4.21h16.84v-5.61c5.4,.73,11.01,.73,16.84,0v5.61Z"/>
  <path class="cls-88" d="M133.41,468.86h16.84c7.5-.23,14.98,0,22.45,.7,1.17,1.42,1.64,3.06,1.4,4.91h22.45c1.5,1.31,3.37,1.78,5.61,1.4v4.21c3.74,.47,7.48,.94,11.23,1.4v4.21c4.24,.29,8.44,.75,12.63,1.4v4.21c5.55,1.08,11.16,1.55,16.84,1.4v4.21c1.81-.33,3.21,.13,4.21,1.4-9.34-.78-18.69-1.25-28.07-1.4h-4.21c.24-1.86-.23-3.49-1.4-4.91-3.71-.7-7.46-.93-11.23-.7v-4.21c-9.3,.42-18.65-.05-28.07-1.4v-4.21h-7.02c-7.21-1.39-14.7-1.85-22.45-1.4v-4.21h-12.63v4.21h-4.21c.09-2.05-.37-3.92-1.4-5.61h5.61c-.38-2.24,.09-4.11,1.4-5.61Z"/>
  <path class="cls-88" d="M196.56,468.86h5.61v5.61h-11.23v-5.61h5.61Z"/>
  <path class="cls-88" d="M202.17,468.86h5.61v5.61c5.63-.23,11.25,0,16.84,.7,1.17,1.42,1.64,3.06,1.4,4.91,5.66,0,11.27,.47,16.84,1.4v5.61h11.23v4.21h5.61c1.5,1.31,3.37,1.78,5.61,1.4v5.61h5.61c-.47,4.21,1.4,6.08,5.61,5.61v5.61c2.69-.4,5.03,.07,7.02,1.4h-18.24c-1.5-1.31-3.37-1.78-5.61-1.4v-5.61h-11.23c.38-2.24-.09-4.11-1.4-5.61-.99-1.27-2.4-1.74-4.21-1.4v-4.21c-5.68,.15-11.29-.32-16.84-1.4v-4.21c-4.18-.65-8.39-1.12-12.63-1.4v-4.21c-3.74-.47-7.48-.94-11.23-1.4v-4.21c-2.24,.38-4.11-.09-5.61-1.4h5.61v-5.61Z"/>
  <path class="cls-88" d="M259.7,463.25h11.23v11.23h5.61v5.61h-5.61v-4.21c-3.69-.83-7.43-1.3-11.23-1.4v-11.23Z"/>
  <path class="cls-88" d="M270.93,468.86h11.23v5.61c4.84-1.04,7.18,.83,7.02,5.61h5.61v5.61c3.74,.47,7.48,.94,11.23,1.4v5.61h-5.61c-3.74-.47-7.48-.94-11.23-1.4v-4.21h-5.61v-5.61c-2.51,.19-4.85-.28-7.02-1.4v-5.61h-5.61v-5.61Z"/>
  <path class="cls-61" d="M363.55,463.25h7.02v5.61h4.21c1.03,1.7,1.5,3.57,1.4,5.61,4.21-.47,6.08,1.4,5.61,5.61,4.79-.16,6.66,2.18,5.61,7.02h5.61v9.82c4.79-.16,6.66,2.18,5.61,7.02-3.45,1.45-7.19,2.38-11.23,2.81v-8.42h-5.61v-11.23h-7.02v-7.02h-5.61v-11.23h-5.61v-5.61Z"/>
  <path class="cls-46" d="M120.78,474.47h5.61c1.03,1.7,1.5,3.57,1.4,5.61h4.21v-4.21h12.63v4.21c7.75-.45,15.24,.02,22.45,1.4v5.61c-4.21,.47-6.08-1.4-5.61-5.61h-5.61v4.21c-3.74,.47-7.48,.94-11.23,1.4h-12.63c-9.04-.2-18.4-.2-28.07,0h-16.84c.58,3.47-.83,5.34-4.21,5.61-5.08-1.6-9.75-3.94-14.03-7.02v-5.61h23.86v-4.21h11.23v4.21h5.61c-.24-1.86,.23-3.49,1.4-4.91,3.5,.58,6.78,.34,9.82-.7Z"/>
  <path class="cls-88" d="M404.24,474.47v5.61h-5.61v-4.21c2.05,.09,3.92-.37,5.61-1.4Z"/>
  <path class="cls-26" d="M433.71,474.47h5.61v7.02h5.61v5.61c-2.06,1.74-4.39,3.14-7.02,4.21v-11.23h-4.21v-5.61Z"/>
  <path class="cls-88" d="M398.63,480.08h5.61v5.61h-5.61v-5.61Z"/>
  <path class="cls-60" d="M404.24,480.08c3.74,.47,7.48,.94,11.23,1.4v9.82h5.61c-.19,2.51,.28,4.85,1.4,7.02-2.27,.75-4.61,1.22-7.02,1.4v-7.02h-5.61v-1.4h-5.61v-11.23Z"/>
  <path class="cls-59" d="M167.09,481.49h7.02v4.21c9.42,1.36,18.77,1.82,28.07,1.4v4.21c1.5,1.31,3.37,1.78,5.61,1.4v4.21h11.23c3.91,1.37,8.12,1.84,12.63,1.4v5.61h11.23v5.61c2.24-.38,4.11,.09,5.61,1.4-11.77,.38-23.46-.08-35.08-1.4v-5.61h-11.23v-5.61h-29.47v-5.61c-9.38-1.41-18.74-1.41-28.07,0v-5.61c3.74-.47,7.48-.94,11.23-1.4v-4.21h5.61c-.47,4.21,1.4,6.08,5.61,5.61v-5.61Z"/>
  <path class="cls-46" d="M369.16,480.08h5.61v7.02h7.02v11.23h5.61v8.42h-5.61c-1.79-2.06-4.13-3-7.02-2.81v-5.61h-5.61v-18.24Z"/>
  <path class="cls-88" d="M404.24,485.7h5.61v0h-5.61Z"/>
  <path class="cls-66" d="M103.94,487.1v4.21h28.07v-4.21h12.63v5.61c9.33-1.41,18.68-1.41,28.07,0v5.61h29.47v5.61h11.23v5.61h-16.84v-5.61c-13.86-.17-27.42-.17-40.69,0h-5.61v-5.61h-5.61v4.21h-5.61v-4.21h-7.02v5.61c-5.46-.43-10.6-.43-15.44,0-12-1.82-23.23-5.56-33.68-11.23,3.38-.27,4.79-2.14,4.21-5.61h16.84Z"/>
  <path class="cls-88" d="M132.01,487.1v4.21h-28.07v-4.21c9.67-.2,19.02-.2,28.07,0Z"/>
  <path class="cls-87" d="M270.93,487.1h5.61c-.38,3.68,.09,7.18,1.4,10.52,3.71,.7,7.46,.93,11.23,.7v5.61h5.61v5.61h5.61c-5.33,1.38-10.94,1.85-16.84,1.4-1.99-1.33-4.33-1.8-7.02-1.4v-5.61c-4.21,.47-6.08-1.4-5.61-5.61h-5.61v-5.61c-2.24,.38-4.11-.09-5.61-1.4h5.61v-4.21h5.61Z"/>
  <path class="cls-88" d="M202.17,491.31c3.77-.23,7.51,0,11.23,.7,1.17,1.42,1.64,3.06,1.4,4.91h-7.02v-4.21c-2.24,.38-4.11-.09-5.61-1.4Z"/>
  <path class="cls-88" d="M276.54,487.1c1.27,.99,1.74,2.4,1.4,4.21,3.97,1.4,7.71,1.4,11.23,0,3.74,.47,7.48,.94,11.23,1.4v5.61h5.61v11.23h-11.23v-5.61h-5.61v-5.61c-3.77,.23-7.51,0-11.23-.7-1.31-3.34-1.78-6.85-1.4-10.52Z"/>
  <path class="cls-88" d="M300.4,492.71h16.84v11.23h5.61v5.61h-16.84v-11.23h-5.61v-5.61Z"/>
  <path class="cls-88" d="M409.85,492.71h5.61v7.02c-1.64,1.19-3.52,2.12-5.61,2.81v-9.82Z"/>
  <path class="cls-23" d="M219.01,496.92c9.37,.16,18.73,.63,28.07,1.4,1.31,1.5,1.78,3.37,1.4,5.61h11.23v5.61c2.24-.38,4.11,.09,5.61,1.4h-16.84c-1.5-1.31-3.37-1.78-5.61-1.4v-5.61h-11.23v-5.61c-4.51,.44-8.72-.03-12.63-1.4Z"/>
  <path class="cls-88" d="M150.25,503.94h-18.24v-5.61h7.02v4.21h5.61v-4.21h5.61v5.61Z"/>
  <path class="cls-35" d="M363.55,498.33h11.23v5.61c2.88-.19,5.22,.75,7.02,2.81-3.91,1.37-8.12,1.84-12.63,1.4v-4.21h-5.61v-5.61Z"/>
  <path class="cls-30" d="M196.56,509.55h-40.69v-5.61c13.27-.17,26.84-.17,40.69,0v5.61Z"/>
  <path class="cls-10" d="M116.57,503.94c4.83-.43,9.98-.43,15.44,0h23.86v5.61c-13.24-.81-26.33-2.68-39.29-5.61Z"/>
  <path class="cls-68" d="M328.46,498.33c1.31,1.5,1.78,3.37,1.4,5.61h9.82v5.61h-16.84v-11.23h5.61Z"/>
  <path class="cls-4" d="M346.71,498.33h5.61v5.61h5.61v5.61h-11.23v-11.23Z"/>
  <path class="cls-3" d="M357.93,498.33h5.61v5.61h5.61v4.21c-3.8,.11-7.54,.57-11.23,1.4v-11.23Z"/>
  <g>
    <path class="cls-1" d="M26.08,5.1H487.83c12.79,0,23.18,10.39,23.18,23.18V481.97c0,12.79-10.39,23.18-23.18,23.18H26.08c-12.79,0-23.18-10.39-23.18-23.18V28.28C2.9,15.49,13.29,5.1,26.08,5.1Z"/>
    <g>
      <path class="cls-1" d="M511.01,481.97V28.28c0-12.8-10.38-23.18-23.18-23.18H26.08C13.31,5.1,2.97,15.42,2.91,28.17V482.01c0,12.77,10.38,23.14,23.17,23.14H282.51v-200.76h-66.19v-69.17h66.19v-75.12c0-45.01,40.82-75.26,73.75-75.26h74.1v62.93h-34.18c-16.84,0-39.3,13.67-39.3,30.49v56.95h66.76v69.17h-66.76v200.76h130.95c12.8,0,23.18-10.38,23.18-23.18Z"/>
      <path class="cls-1" d="M487.83,508.04h-133.85v-206.55h66.76v-63.37h-66.76v-59.85c0-17.98,23.2-33.39,42.2-33.39h31.28v-57.14h-71.2c-29.6,0-70.85,27.53-70.85,72.36v78.02h-66.19v63.37h66.19v206.55H26.08c-14.35,0-26.06-11.68-26.08-26.03V28.17C.08,13.84,11.77,2.2,26.08,2.2H487.83c14.37,0,26.08,11.7,26.08,26.08V481.97c0,14.37-11.71,26.07-26.08,26.07Zm-128.05-5.79h128.05c11.19,0,20.28-9.1,20.28-20.28V28.28c0-11.18-9.1-20.28-20.28-20.28H26.08C14.96,7.99,5.86,17.05,5.81,28.17V482.01c0,11.16,9.11,20.24,20.27,20.24h253.53v-194.96h-66.18v-74.96h66.18v-72.22c0-44.73,40.47-78.16,76.65-78.16h77v68.73h-37.08c-16.05,0-36.4,12.99-36.4,27.59v54.06h66.74v74.96h-66.74v194.96Z"/>
    </g>
  </g>
</svg>